<svg xmlns="http://www.w3.org/2000/svg" width="625" height="240" viewBox="0 0 625 240">
  <metadata><?xpacket begin="﻿" id="W5M0MpCehiHzreSzNTczkc9d"?>
<x:xmpmeta xmlns:x="adobe:ns:meta/" x:xmptk="Adobe XMP Core 5.6-c138 79.159824, 2016/09/14-01:09:01        ">
   <rdf:RDF xmlns:rdf="http://www.w3.org/1999/02/22-rdf-syntax-ns#">
      <rdf:Description rdf:about=""/>
   </rdf:RDF>
</x:xmpmeta>
                                                                                                    
                                                                                                    
                                                                                                    
                                                                                                    
                                                                                                    
                                                                                                    
                                                                                                    
                                                                                                    
                                                                                                    
                                                                                                    
                                                                                                    
                                                                                                    
                                                                                                    
                                                                                                    
                                                                                                    
                                                                                                    
                                                                                                    
                                                                                                    
                                                                                                    
                                                                                                    
                           
<?xpacket end="w"?></metadata>
<defs>
    <style>
      .cls-1 {
        fill: #4d5d55;
      }

      .cls-1, .cls-2 {
        fill-rule: evenodd;
      }

      .cls-2 {
        fill: #ec7d64;
      }
    </style>
  </defs>
  <g id="letterMobile">
    <path id="Macarena_y_Alberto_" data-name="Macarena y Alberto " class="cls-1" d="M1085,698.26a48.329,48.329,0,0,1-3.45-13.437,64.913,64.913,0,0,1,0-14.073,97.594,97.594,0,0,1,2.3-13.182,95.9,95.9,0,0,1,10.39-25.917,84.467,84.467,0,0,1,17.8-21.461,92.925,92.925,0,0,1,7.71-6.113,77.807,77.807,0,0,1,8.29-5.222,44.985,44.985,0,0,1,7.14-3.184c2.09-.678,3.51-0.72,4.28-0.127a1.042,1.042,0,0,1,.06,1.21,1.125,1.125,0,0,1-.7.955,5.438,5.438,0,0,0,1.85-1.019,2.65,2.65,0,0,0,1.08-1.783,0.873,0.873,0,0,0-.95-1.146,7.183,7.183,0,0,0-1.98.255,31.781,31.781,0,0,0-6.31,1.974q-3.135,1.336-5.93,2.738a112.991,112.991,0,0,0-22.96,15.156A115.507,115.507,0,0,0,1085,634.007q-4.1,5.731-7.72,11.844t-6.95,12.354q-2.3,4.459-4.4,8.852t-4.27,8.851a113.954,113.954,0,0,0,3.19-13.882q1.14-7,2.16-14.264,0.9-7,1.98-14.01a65.1,65.1,0,0,1,3.64-13.628,47.513,47.513,0,0,1,10.96-17.066,28.033,28.033,0,0,1,2.94-2.547,21.653,21.653,0,0,1,3.31-2.038,15.393,15.393,0,0,1,1.79-.636,3.311,3.311,0,0,1,1.53-.128,0.773,0.773,0,0,1,.7.7,3.057,3.057,0,0,1-.7,1.719,4.81,4.81,0,0,0,.96-1.019,5.442,5.442,0,0,0,.82-1.528,1.9,1.9,0,0,0,.07-1.274c-0.13-.338-0.58-0.465-1.34-0.382a12.289,12.289,0,0,0-5.68,2.484,45.4,45.4,0,0,0-6.05,5.221q-2.94,2.994-5.42,5.986t-3.77,4.776a118.6,118.6,0,0,0-7.46,11.908q-3.375,6.18-6.57,12.545-5.355,10.317-9.75,19.741t-9.63,18.467q-3.45,5.988-7.46,11.654a53.173,53.173,0,0,1-9.38,10.125,35.226,35.226,0,0,1-4.84,3.311,28.067,28.067,0,0,1-5.55,2.42,16.811,16.811,0,0,1-5.74.764,10.67,10.67,0,0,1-5.3-1.655,10.124,10.124,0,0,1-4.523-4.9,20.631,20.631,0,0,1-1.594-6.75,33.709,33.709,0,0,1,.255-7.2,52.514,52.514,0,0,1,1.275-6.368,57.113,57.113,0,0,1,4.847-12.863,42.84,42.84,0,0,1,8.16-10.953,37.857,37.857,0,0,1,10.72-7.323,33.139,33.139,0,0,1,12.62-2.993,39.669,39.669,0,0,1,4.47,0,8.94,8.94,0,0,1,3.95,1.146,1.662,1.662,0,0,1,.96,1.21,2.21,2.21,0,0,1-.32,1.337,3.638,3.638,0,0,1-1.02,1.083,2.087,2.087,0,0,1-1.15.446,11.561,11.561,0,0,0,4.72-1.21,2.83,2.83,0,0,0,1.72-2.038,2.433,2.433,0,0,0-1.47-2.038,11.072,11.072,0,0,0-4.84-1.21,46.6,46.6,0,0,0-8.55.319,41.015,41.015,0,0,0-10.07,2.611,33.1,33.1,0,0,0-4.79,2.356,36.7,36.7,0,0,0-4.14,2.865,50.829,50.829,0,0,0-9.25,9.361,62.091,62.091,0,0,0-6.822,11.272,53.248,53.248,0,0,0-3.89,13.245,24.937,24.937,0,0,0,1.339,13.118,14.253,14.253,0,0,0,3.444,5.285,11.625,11.625,0,0,0,5.609,2.993,17.934,17.934,0,0,0,10.08-.573,31.319,31.319,0,0,0,8.8-4.967,50.554,50.554,0,0,0,7.46-7.323q3.375-4.077,5.93-7.769,4.08-5.856,7.53-11.908,3.435-6.048,6.76-12.29,6.375-12.1,11.67-22.989a221.9,221.9,0,0,1,11.67-21.078,83.532,83.532,0,0,0-5.04,13.182q-1.98,6.814-3.51,13.691-1.02,4.459-1.85,9.043c-0.55,3.056-1.13,6.113-1.72,9.17q-1.155,6.5-2.55,12.736-1.41,6.241-3.19,12.608-0.51,1.782-.96,3.375c-0.3,1.061-.61,2.185-0.95,3.375a0.529,0.529,0,0,0,.44.255,0.548,0.548,0,0,1,.45.255q3.69-8.535,7.52-16.939t8.17-16.429q4.335-8.025,9.31-15.666a150.808,150.808,0,0,1,10.84-14.646c0.76-.933,1.55-1.847,2.36-2.738s1.63-1.8,2.48-2.739a91.412,91.412,0,0,0-12.56,25.154,73.047,73.047,0,0,0-3.38,27.828,72.283,72.283,0,0,0,2.55,13.182,40.8,40.8,0,0,0,5.87,12.163,25.342,25.342,0,0,0,10.2,8.724,26.649,26.649,0,0,0,12.76,2.356,35.365,35.365,0,0,0,12.11-2.675,72.331,72.331,0,0,0,11.1-5.731,96.916,96.916,0,0,0,10.27-7.323q4.9-4.011,9.37-8.342a155.882,155.882,0,0,1-14.99,12.035,69.146,69.146,0,0,1-15.68,8.47,39.677,39.677,0,0,1-15.31,2.674,22.882,22.882,0,0,1-13.71-5.221A30.047,30.047,0,0,1,1085,698.26Zm40.81-24.644a36.1,36.1,0,0,1-2.17,3.375q-1.41,1.976-3.06,3.948a37.856,37.856,0,0,1-3.32,3.5,7.714,7.714,0,0,1-3.06,1.911,1.318,1.318,0,0,1-1.78-.7c-0.34-.72-0.26-2.016.25-3.884,0.09-.255.28-1,0.58-2.229s0.7-2.611,1.21-4.139,1.1-3.057,1.78-4.585a9.1,9.1,0,0,1,2.43-3.439c0.68-.593,1.1-0.593,1.27,0a3.159,3.159,0,0,1,.13,1.019,3.561,3.561,0,0,0,.25-1.974,3.8,3.8,0,0,0-.7-1.974,1.487,1.487,0,0,0-1.59-.573c-0.68.127-1.45,0.871-2.3,2.228a3.9,3.9,0,0,0-3.12-2.165,8.447,8.447,0,0,0-3.89.382,14.708,14.708,0,0,0-3.64,1.974,27.245,27.245,0,0,0-3.57,3.121,31.788,31.788,0,0,0-3.19,3.884,24.57,24.57,0,0,0-2.36,4.139q-2.04,4.968-2.04,7.642c0,1.783.43,2.973,1.28,3.566a4.028,4.028,0,0,0,3.44.318,14.29,14.29,0,0,0,4.47-2.165,27.148,27.148,0,0,0,4.46-3.948,18,18,0,0,0,3.32-5.031l-1.15,3.821q-1.02,4.332-.58,5.986a1.939,1.939,0,0,0,1.98,1.656,6.935,6.935,0,0,0,4.15-1.974,37.61,37.61,0,0,0,4.52-4.521q2.175-2.547,3.89-4.968c1.15-1.611,1.94-2.758,2.36-3.438Zm-19.01,8.978q-3.18,3.249-5.67,3.885a3.058,3.058,0,0,1-3.7-1.274q-1.215-1.91.32-6.368a27.449,27.449,0,0,1,5.74-10.061c2.29-2.376,4.38-3.777,6.25-4.2s3.19,0.086,3.95,1.528,0.34,3.865-1.27,7.26A28.144,28.144,0,0,1,1106.8,682.594Zm38.27-8.978a33.948,33.948,0,0,1-2.24,3.438,40.01,40.01,0,0,1-3.37,4.076,33.278,33.278,0,0,1-4.09,3.693,10.024,10.024,0,0,1-4.46,2.038,3.9,3.9,0,0,1-2.42-.255,3.679,3.679,0,0,1-1.79-1.719,8.1,8.1,0,0,1-.76-3.311,15.561,15.561,0,0,1,.76-5.158,20.191,20.191,0,0,1,3.51-6.942,13.483,13.483,0,0,1,5.16-4.393c1.7-.765,2.83-0.912,3.38-0.446a2.384,2.384,0,0,1,.71,2.165,10.42,10.42,0,0,1-.71,2.929c-0.38.977-.61,1.592-0.7,1.847a4.6,4.6,0,0,0-.44.828,5.326,5.326,0,0,1-.45.828c0.93-.765,1.98-1.7,3.12-2.8a6.2,6.2,0,0,0,1.98-3.821,1.947,1.947,0,0,0-.38-1.592,3.483,3.483,0,0,0-1.28-.892,4.121,4.121,0,0,0-1.59-.318,5.78,5.78,0,0,0-1.34.127,14.966,14.966,0,0,0-7.97,3.757,19.17,19.17,0,0,0-5.04,6.687,22.1,22.1,0,0,0-1.47,4.457,17.465,17.465,0,0,0-.44,4.84,6.832,6.832,0,0,0,1.34,3.885,4.559,4.559,0,0,0,3.89,1.592,10.9,10.9,0,0,0,6.12-1.847,25.134,25.134,0,0,0,4.97-4.267,36.848,36.848,0,0,0,3.64-4.712c0.97-1.528,1.72-2.631,2.23-3.311Zm27.54,0a35.721,35.721,0,0,1-2.16,3.375q-1.41,1.976-3.06,3.948a39.239,39.239,0,0,1-3.32,3.5,7.851,7.851,0,0,1-3.06,1.911,1.329,1.329,0,0,1-1.79-.7c-0.34-.72-0.25-2.016.26-3.884q0.12-.383.57-2.229c0.3-1.23.7-2.611,1.21-4.139s1.11-3.057,1.79-4.585a9.2,9.2,0,0,1,2.42-3.439c0.68-.593,1.11-0.593,1.28,0a3.465,3.465,0,0,1,.13,1.019,3.654,3.654,0,0,0,.25-1.974,3.978,3.978,0,0,0-.7-1.974,1.5,1.5,0,0,0-1.6-.573c-0.68.127-1.44,0.871-2.29,2.228a3.9,3.9,0,0,0-3.13-2.165,8.447,8.447,0,0,0-3.89.382,14.657,14.657,0,0,0-3.63,1.974,27.245,27.245,0,0,0-3.57,3.121,31.788,31.788,0,0,0-3.19,3.884,23.9,23.9,0,0,0-2.36,4.139q-2.04,4.968-2.04,7.642c0,1.783.42,2.973,1.27,3.566a4.046,4.046,0,0,0,3.45.318,14.351,14.351,0,0,0,4.46-2.165,27.2,27.2,0,0,0,4.47-3.948,17.749,17.749,0,0,0,3.31-5.031l-1.15,3.821q-1.02,4.332-.57,5.986a1.939,1.939,0,0,0,1.98,1.656,6.889,6.889,0,0,0,4.14-1.974,38.416,38.416,0,0,0,4.53-4.521c1.45-1.7,2.74-3.354,3.89-4.968s1.93-2.758,2.36-3.438Zm-19,8.978q-3.195,3.249-5.67,3.885a3.053,3.053,0,0,1-3.7-1.274q-1.215-1.91.32-6.368a27.449,27.449,0,0,1,5.74-10.061q3.435-3.564,6.24-4.2t3.96,1.528c0.76,1.445.34,3.865-1.28,7.26A27.969,27.969,0,0,1,1153.61,682.594Zm37.5-7.96a64.511,64.511,0,0,1-4.28,5.859,43.945,43.945,0,0,1-4.52,4.9c-1.36,1.232-2.43,1.847-3.19,1.847s-0.9-1.146-.39-3.439q0.78-2.546,1.66-4.9a41.608,41.608,0,0,1,2.04-4.521c0.17-.339.36-0.742,0.58-1.21a4.381,4.381,0,0,0,.38-1.465,2.535,2.535,0,0,0-.32-1.464,3.043,3.043,0,0,0-1.53-1.21,20.814,20.814,0,0,0-2.29-.956,12.458,12.458,0,0,1-2.17-.955,4.852,4.852,0,0,0,.51-1.337,15.554,15.554,0,0,0,.38-1.974c0.17-2.121-.21-3.331-1.15-3.63a2.385,2.385,0,0,0-2.55.7,4.236,4.236,0,0,0-1.15,3.12q0,1.976,3.06,3.5a17.3,17.3,0,0,1-1.08,2.038c-0.55.935-1.13,1.891-1.72,2.866s-1.4,2.228-2.43,3.757a0.357,0.357,0,0,0,.07.446c0.13,0.127.27,0.107,0.45-.064,0.76-1.274,1.53-2.462,2.29-3.566,0.59-.933,1.19-1.889,1.79-2.866a19.706,19.706,0,0,0,1.27-2.356,2.189,2.189,0,0,1,1.21.637,13.934,13.934,0,0,1,1.34,1.019,2.361,2.361,0,0,1,.96,2.483,13.288,13.288,0,0,1-.83,2.611q-1.53,2.931-2.68,5.54a29.963,29.963,0,0,0-1.78,5.413q-0.51,2.167.12,3.057a1.961,1.961,0,0,0,1.66.891,6.486,6.486,0,0,0,3.76-1.592,28.683,28.683,0,0,0,4.15-3.884c1.36-1.529,2.63-3.077,3.83-4.649s2.12-2.865,2.8-3.884h0Zm-16.07-9.233a3.668,3.668,0,0,1,0-1.974,2.049,2.049,0,0,1,.89-1.274c0.42-.254.85-0.083,1.27,0.51a3.4,3.4,0,0,1,.07,2.165,8.752,8.752,0,0,1-.83,2.038A1.95,1.95,0,0,1,1175.04,665.4Zm35.45,8.215c-0.76,1.273-1.66,2.61-2.68,4.011a42.457,42.457,0,0,1-3.31,4.012,27.628,27.628,0,0,1-3.77,3.375,9.755,9.755,0,0,1-3.89,1.847,5.109,5.109,0,0,1-2.8-.255,4.756,4.756,0,0,1-1.98-1.592,6.1,6.1,0,0,1-.83-4.012q9.435-4.584,13.14-8.023t3.83-5.668a2.791,2.791,0,0,0-2.24-2.993,8.468,8.468,0,0,0-5.03,0,14.979,14.979,0,0,0-6.51,3.949,21.964,21.964,0,0,0-6.31,12.8,10.368,10.368,0,0,0,.51,4.521,5.567,5.567,0,0,0,1.85,2.611,4.8,4.8,0,0,0,2.29.956h0.64a10.771,10.771,0,0,0,6.25-2.038,29.924,29.924,0,0,0,5.23-4.585,33.8,33.8,0,0,0,3.7-4.84,21.85,21.85,0,0,1,1.78-2.674Zm-5.99-8.47c0.76,0.808.89,2,.38,3.566a14.47,14.47,0,0,1-3.95,5.413,32.984,32.984,0,0,1-9.7,5.859,35.066,35.066,0,0,1,1.6-6.241,18.4,18.4,0,0,1,2.93-5.031,13.161,13.161,0,0,1,5.29-3.884h0Q1203.345,663.939,1204.5,665.146Zm31.75,8.47a33.894,33.894,0,0,1-2.04,3.12q-1.395,1.976-2.99,3.884c-1.07,1.274-2.15,2.464-3.26,3.566a10.321,10.321,0,0,1-2.8,2.166,1.143,1.143,0,0,1-1.66-.382c-0.34-.593-0.26-1.911.25-3.949q0.765-2.674,1.73-5.412,0.945-2.738,1.59-5.159a29.185,29.185,0,0,0,.83-4.33,3.338,3.338,0,0,0-.7-2.8c-0.51-.509-1.47-0.509-2.87,0a24.557,24.557,0,0,0-4.4,2.165,40.5,40.5,0,0,0-4.21,2.93,12.428,12.428,0,0,0-2.42,2.292c0.33-.764.74-1.761,1.21-2.993a10.736,10.736,0,0,0,.76-3.12,1.119,1.119,0,0,0-.95-1.4c-0.69-.084-2,0.681-3.96,2.292a4.484,4.484,0,0,1,1.15-.509,0.7,0.7,0,0,1,.7.127,0.74,0.74,0,0,1,.07.892,14.4,14.4,0,0,1-.64,1.91,18.1,18.1,0,0,1-.7,1.72,16.028,16.028,0,0,0-.71,1.719q-1.02,2.549-2.04,5.731t-1.72,5.859q-0.705,2.675-1.02,4.266c-0.21,1.061-.15,1.379.19,0.956a9.379,9.379,0,0,0,1.21-2.357c0.56-1.315,1.15-2.8,1.79-4.457s1.3-3.268,1.98-4.84a32.588,32.588,0,0,1,1.78-3.63,20.175,20.175,0,0,1,1.92-1.91c1.02-.933,2.14-1.867,3.38-2.8a30.034,30.034,0,0,1,3.57-2.356,4.542,4.542,0,0,1,2.48-.828c0.77,0.34,1.02,1.274.77,2.8a32.815,32.815,0,0,1-1.4,5.222q-1.035,2.931-2.11,6.049a37.145,37.145,0,0,0-1.46,5.158,5.06,5.06,0,0,0,.38,3.121q0.63,1.212,2.55.828a9.114,9.114,0,0,0,3.82-2.1,35.1,35.1,0,0,0,3.96-3.948,53.088,53.088,0,0,0,3.44-4.458q1.53-2.226,2.43-3.629Zm27.81,0a38.289,38.289,0,0,1-2.17,3.375q-1.41,1.976-3.06,3.948a39.239,39.239,0,0,1-3.32,3.5,7.851,7.851,0,0,1-3.06,1.911,1.329,1.329,0,0,1-1.79-.7c-0.34-.72-0.25-2.016.26-3.884q0.12-.383.57-2.229c0.3-1.23.7-2.611,1.21-4.139s1.11-3.057,1.79-4.585a9.2,9.2,0,0,1,2.42-3.439c0.68-.593,1.11-0.593,1.28,0a3.465,3.465,0,0,1,.13,1.019,3.654,3.654,0,0,0,.25-1.974,3.884,3.884,0,0,0-.7-1.974,1.493,1.493,0,0,0-1.59-.573c-0.69.127-1.45,0.871-2.3,2.228a3.9,3.9,0,0,0-3.13-2.165,8.447,8.447,0,0,0-3.89.382,14.657,14.657,0,0,0-3.63,1.974,27.245,27.245,0,0,0-3.57,3.121,31.788,31.788,0,0,0-3.19,3.884,23.9,23.9,0,0,0-2.36,4.139q-2.04,4.968-2.04,7.642c0,1.783.42,2.973,1.28,3.566a4.018,4.018,0,0,0,3.44.318,14.351,14.351,0,0,0,4.46-2.165,27.2,27.2,0,0,0,4.47-3.948,17.749,17.749,0,0,0,3.31-5.031l-1.15,3.821q-1.02,4.332-.57,5.986a1.939,1.939,0,0,0,1.98,1.656,6.889,6.889,0,0,0,4.14-1.974,37.672,37.672,0,0,0,4.53-4.521c1.45-1.7,2.74-3.354,3.89-4.968s1.93-2.758,2.36-3.438Zm-19.01,8.978c-2.12,2.166-4.02,3.461-5.67,3.885a3.053,3.053,0,0,1-3.7-1.274q-1.215-1.91.32-6.368a27.449,27.449,0,0,1,5.74-10.061q3.435-3.564,6.24-4.2t3.96,1.528c0.76,1.445.34,3.865-1.28,7.26A27.969,27.969,0,0,1,1245.05,682.594Zm62.5-.827a23.692,23.692,0,0,1-7.15,5.858q1.155-4.2,2.49-8.469t3-8.342a7.718,7.718,0,0,1,1.53-2.739c0.59-.636,1.06-0.191,1.4,1.338a4.269,4.269,0,0,0,.19-2.293,5.178,5.178,0,0,0-.76-2.229,1.407,1.407,0,0,0-1.53-.636c-0.64.127-1.34,0.913-2.11,2.356q-0.765,1.529-1.47,3.184c-0.46,1.1-.91,2.251-1.33,3.439-0.6.849-1.51,2.059-2.75,3.629s-2.55,3.1-3.95,4.585a45.272,45.272,0,0,1-4.02,3.821q-1.9,1.594-3.06,1.337c-0.94-.764-0.89-2.439.13-5.03s2.42-5.964,4.21-10.126c0.34-.847.72-1.866,1.15-3.056a9.435,9.435,0,0,0,.63-3.057,1.121,1.121,0,0,0-1.08-1.337q-1.08-.063-3.89,2.229a8.956,8.956,0,0,1,1.15-.382,0.81,0.81,0,0,1,.7.063,0.733,0.733,0,0,1,.19.828,13.067,13.067,0,0,1-1.08,2.484c-0.64,1.232-1.17,2.272-1.6,3.12-0.34.764-.91,2.018-1.72,3.757a46.788,46.788,0,0,0-2.1,5.349,19.957,19.957,0,0,0-1.03,4.967c-0.08,1.487.43,2.4,1.54,2.739,0.76,0.423,1.84.147,3.25-.828a36.086,36.086,0,0,0,4.46-3.757q2.355-2.293,4.53-4.84t3.57-4.33c-0.17.426-.45,1.337-0.83,2.738s-0.79,2.865-1.21,4.394-0.85,2.929-1.28,4.2a8.495,8.495,0,0,1-.89,2.165c-1.96.933-3.97,1.93-6.06,2.993s-3.76,1.93-5.03,2.611a61.72,61.72,0,0,0-12.57,8.6,79.748,79.748,0,0,0-10.84,11.526,63.659,63.659,0,0,0-7.71,12.8,36.145,36.145,0,0,0-3.32,12.418q-0.255,4.584,1.47,6.113a4.806,4.806,0,0,0,4.59.828,19.912,19.912,0,0,0,6.37-3.12,63.414,63.414,0,0,0,6.96-5.6q0.885-.892,2.99-3.312c1.41-1.614,3.04-3.588,4.91-5.922s3.85-5.011,5.93-8.024,4.11-6.24,6.06-9.679,3.78-7.048,5.49-10.825a73.124,73.124,0,0,0,4.08-11.527,21.525,21.525,0,0,0,7.91-6.368c1.86-2.547,3.61-5.008,5.22-7.386L1313.16,674A72.016,72.016,0,0,1,1307.55,681.767Zm-18.88,28.719q-3.45,6.558-6.63,11.463a79.14,79.14,0,0,1-5.68,7.832c-1.66,1.952-2.61,3.1-2.87,3.439a34.408,34.408,0,0,1-5.23,5.349,27.422,27.422,0,0,1-5.61,3.694,10.173,10.173,0,0,1-4.53,1.209,2.01,2.01,0,0,1-2.1-1.974,26.387,26.387,0,0,1,2.1-13.372,65.59,65.59,0,0,1,7.21-12.927,79.005,79.005,0,0,1,9.05-10.635,62.463,62.463,0,0,1,7.53-6.5q3.195-2.167,6.25-3.948a66.761,66.761,0,0,1,6.5-3.312,6.491,6.491,0,0,1,.9-0.382,7.447,7.447,0,0,0,.89-0.382c-0.09.255-.24,0.657-0.45,1.21s-0.4,1.124-.57,1.719-0.36,1.188-.58,1.783-0.36,1.019-.44,1.274A78.087,78.087,0,0,1,1288.67,710.486Zm143.22,0.382a34.066,34.066,0,0,1-7.9-8.979,46.973,46.973,0,0,1-4.98-11.271,67.588,67.588,0,0,1-2.42-11.908,85.155,85.155,0,0,1-.45-16.366,144.174,144.174,0,0,1,1.98-15.6c1.28,0.254,2.72.467,4.34,0.636a18.386,18.386,0,0,0,4.84-.127,11.258,11.258,0,0,0,4.47-1.719,9.374,9.374,0,0,0,3.31-4.267,7.456,7.456,0,0,1-3.12,2.738,17.342,17.342,0,0,1-4.34,1.4,22.275,22.275,0,0,1-4.78.382,28.045,28.045,0,0,1-4.46-.445,138.621,138.621,0,0,1,4.46-14.647,107.8,107.8,0,0,1,6.76-15.028,74.978,74.978,0,0,1,9.05-13.182,35.71,35.71,0,0,1,11.36-8.979,5.673,5.673,0,0,1,2.99-.764,2.427,2.427,0,0,1,1.72.764,2.146,2.146,0,0,1,.39,1.656,3.32,3.32,0,0,1-1.02,1.91,24.036,24.036,0,0,0,1.91-1.592,6.79,6.79,0,0,0,1.53-2.356,3.84,3.84,0,0,0,.13-3.184c-0.43-.933-1.36-1.188-2.81-0.764a26.032,26.032,0,0,0-5.74,2.675c-2.12,1.273-4.23,2.674-6.31,4.2s-4.06,3.1-5.93,4.713-3.36,2.973-4.47,4.075a75.772,75.772,0,0,0-8.86,8.788q-4.02,4.713-7.65,9.743-3.645,5.033-6.95,10.125t-6.76,10.062a72.032,72.032,0,0,0-18.88.445,69.708,69.708,0,0,0-17.6,5.159,63.814,63.814,0,0,0-11.48,7.068,61.243,61.243,0,0,0-9.69,9.361,62.668,62.668,0,0,0-5.55,8.342,45.788,45.788,0,0,0-4.08,9.743,32.165,32.165,0,0,0-1.28,10.125,18.824,18.824,0,0,0,2.75,9.234,11.56,11.56,0,0,0,4.33,4.139,10.291,10.291,0,0,0,5.87,1.21,32.212,32.212,0,0,0,11.86-3.312,52.029,52.029,0,0,0,10.71-7.195,77.686,77.686,0,0,0,9.51-9.807q4.395-5.412,8.22-11.08t6.95-11.208q3.135-5.539,5.68-10c1.1-1.866,2.15-3.671,3.12-5.413s1.98-3.586,3-5.54q1.275,0.129,4.08.51t4.59,0.637a112.474,112.474,0,0,0-1.27,11.589,113.823,113.823,0,0,0-.07,12.673,102.273,102.273,0,0,0,1.47,12.8,60.274,60.274,0,0,0,3.45,12.036,46.556,46.556,0,0,0,5.8,10.38,31.956,31.956,0,0,0,8.48,7.9,25.55,25.55,0,0,0,10.65,3.757,33.793,33.793,0,0,0,10.9-.637,47.463,47.463,0,0,0,10.78-3.821,78.449,78.449,0,0,0,10.14-5.986,110.908,110.908,0,0,0,9.12-7.068q4.275-3.7,7.72-7-4.98,4.329-10.53,8.852a87.863,87.863,0,0,1-11.6,8.023,57.4,57.4,0,0,1-12.56,5.413,30.973,30.973,0,0,1-13.4.892A24.756,24.756,0,0,1,1431.89,710.868ZM1380.24,682.4a86.236,86.236,0,0,1-8.54,11.081,53.912,53.912,0,0,1-5.81,5.413,41.5,41.5,0,0,1-7.84,5.094,24.759,24.759,0,0,1-8.55,2.547,10.5,10.5,0,0,1-7.78-2.229,9.575,9.575,0,0,1-3.31-4.9,20.313,20.313,0,0,1-.77-6.559,35.855,35.855,0,0,1,1.09-7.387,63.122,63.122,0,0,1,2.29-7.323,60.439,60.439,0,0,1,2.87-6.432,40.7,40.7,0,0,1,2.81-4.712,49.523,49.523,0,0,1,8.93-9.934,51.693,51.693,0,0,1,11.22-7.26,53.278,53.278,0,0,1,17.15-5.158,81.7,81.7,0,0,1,17.92-.191q-3.825,6.495-7.33,13.055t-7.21,13.054Q1383.945,676.672,1380.24,682.4Zm32.52-50.179q3.315-5.858,6.95-11.4a114.1,114.1,0,0,1,7.91-10.635,64.619,64.619,0,0,1,9.63-9.3,58.774,58.774,0,0,0-8.42,9.616,94.945,94.945,0,0,0-6.63,11.016,102.281,102.281,0,0,0-4.59,11.654,118.933,118.933,0,0,0-3.19,11.908c-1.45-.255-2.8-0.466-4.08-0.637s-2.64-.338-4.08-0.509Q1409.44,638.084,1412.76,632.224Zm25.64,36.3q1.9-1.909,3.95-3.821,1.41-1.4,4.21-4.2t6.19-6.751q3.375-3.945,7.01-8.787a94.771,94.771,0,0,0,6.7-10.253,70.949,70.949,0,0,0,5.1-11.144,42.524,42.524,0,0,0,2.42-11.59,4.563,4.563,0,0,0-.51-2.865,1.9,1.9,0,0,0-2.1-.7,8.726,8.726,0,0,0-3.64,2.038,50.366,50.366,0,0,0-5.23,5.222,92.75,92.75,0,0,0-7.58,10.571q-4.02,6.369-7.78,13.373t-7.08,13.945c-2.22,4.629-4.08,8.641-5.62,12.036a72.722,72.722,0,0,0-3.89,9.807,39.988,39.988,0,0,0-1.21,5.6,7.9,7.9,0,0,0,.9,5.413,4.637,4.637,0,0,0,4.33,2.484,10.849,10.849,0,0,0,6.32-2.1,29.982,29.982,0,0,0,5.29-4.712,41.217,41.217,0,0,0,3.76-4.9c0.98-1.529,1.6-2.462,1.85-2.8v-1.146c-0.76,1.273-1.66,2.632-2.68,4.075a50.607,50.607,0,0,1-3.25,4.139,25.968,25.968,0,0,1-3.7,3.5,10.8,10.8,0,0,1-4.14,2.037q-2.94.765-4.21-1.21a7.928,7.928,0,0,1-1.28-4.393,8.286,8.286,0,0,1,.13-2.42q0.255-1.146.57-2.8a26.908,26.908,0,0,1,1.09-3.821Q1436.48,670.431,1438.4,668.521Zm25.89-53.682q2.925-3.248,4.34-3.63,1.395-.381,1.59,1.592a16.231,16.231,0,0,1-.57,5.158,70.807,70.807,0,0,1-4.85,14.71,88.131,88.131,0,0,1-7.65,13.373,110.128,110.128,0,0,1-10.14,12.481q-5.685,6.051-12.18,12.163l9.18-20.25q1.785-3.947,3.7-7.9t3.57-7.387q1.65-3.439,3.06-6.05c0.94-1.739,1.66-2.993,2.17-3.757A97.193,97.193,0,0,1,1464.29,614.839Zm-8.1,54.828c0.64-.593,1.29-1.229,1.98-1.91s1.31-1.315,1.91-1.91,0.98-.975,1.15-1.147q1.395-1.4,4.21-4.266t6.25-6.75q3.435-3.883,7.07-8.724a87.416,87.416,0,0,0,6.64-10.253,81.387,81.387,0,0,0,5.1-11.144,38.373,38.373,0,0,0,2.36-11.59,4.7,4.7,0,0,0-.51-2.865,1.92,1.92,0,0,0-2.11-.7,8.644,8.644,0,0,0-3.63,2.038,49.4,49.4,0,0,0-5.23,5.222,80.64,80.64,0,0,0-7.08,9.807q-3.765,5.988-7.4,12.608t-6.88,13.246q-3.255,6.623-5.55,11.844a61.916,61.916,0,0,0-4.28,12.927,23.966,23.966,0,0,0-.31,9.234q0.765,3.314,2.61,3.757a5.445,5.445,0,0,0,3.89-.637,17.158,17.158,0,0,0,3.89-2.866c1.23-1.188,2.19-2.165,2.87-2.929a8.934,8.934,0,0,0,3.83-.064,14.067,14.067,0,0,0,3.63-1.4,14.781,14.781,0,0,0,3.06-2.229,14.357,14.357,0,0,0,2.11-2.42,6.3,6.3,0,0,0,.7-0.955c0.3-.466.57-0.912,0.83-1.338q0.51-.763,1.02-1.655a0.6,0.6,0,0,0-.19-0.51c-0.13-.083-0.24-0.041-0.32.128-0.6.935-1.04,1.635-1.34,2.1s-0.7,1.083-1.21,1.847a15.8,15.8,0,0,1-4.79,4.075,8.936,8.936,0,0,1-5.8.892,61.124,61.124,0,0,0,6.12-8.533q2.55-4.329,2.3-6.623a2.663,2.663,0,0,0-1.6-2.229,4.745,4.745,0,0,0-3.18-.063,10.773,10.773,0,0,0-3.83,2.1,12.631,12.631,0,0,0-3.25,4.012,16.8,16.8,0,0,0-1.34,3.375,15.788,15.788,0,0,0-.64,3.884,7.537,7.537,0,0,0,.64,3.439,3.717,3.717,0,0,0,2.61,2.038,28.827,28.827,0,0,1-3.76,3.439,4.911,4.911,0,0,1-3,1.209,2.45,2.45,0,0,1-2.04-1.655,12.741,12.741,0,0,1-.76-5.158,18.688,18.688,0,0,1,.63-4.967c0.43-1.529.85-3.057,1.28-4.585A12.784,12.784,0,0,0,1456.19,669.667Zm7.84-2.292a8.648,8.648,0,0,1,2.94-2.229,2.817,2.817,0,0,1,2.48,0,2.545,2.545,0,0,1,1.22,2.229,6.069,6.069,0,0,1-.39,2.547,24.65,24.65,0,0,1-1.46,3.375q-0.96,1.848-2.24,3.821a34.335,34.335,0,0,1-2.8,3.757,1.131,1.131,0,0,1-.51-0.127l-0.51-.255a4.547,4.547,0,0,1-1.85-2.675q-0.705-2.035.7-6.113h0A11.7,11.7,0,0,1,1464.03,667.375Zm19.9-35.151a85.91,85.91,0,0,1-7.33,12.99,115.258,115.258,0,0,1-9.63,12.163q-5.355,5.922-11.61,11.781,1.02-2.8,2.3-6.3c0.84-2.335,1.87-4.818,3.06-7.451q2.16-4.839,4.4-9.616,2.22-4.776,4.21-8.851,1.965-4.074,3.57-7.132,1.59-3.057,2.48-4.458a98.567,98.567,0,0,1,7.78-10.507c1.96-2.165,3.4-3.375,4.34-3.63s1.47,0.277,1.59,1.592a18.432,18.432,0,0,1-.44,5.158A72.312,72.312,0,0,1,1483.93,632.224Zm11.86,41.392c-0.76,1.273-1.66,2.61-2.68,4.011a42.457,42.457,0,0,1-3.31,4.012,28.233,28.233,0,0,1-3.77,3.375,9.818,9.818,0,0,1-3.89,1.847,5.109,5.109,0,0,1-2.8-.255,4.756,4.756,0,0,1-1.98-1.592,6.1,6.1,0,0,1-.83-4.012q9.435-4.584,13.14-8.023c2.46-2.293,3.74-4.181,3.82-5.668a2.774,2.774,0,0,0-2.23-2.993,8.5,8.5,0,0,0-5.04,0,15.005,15.005,0,0,0-6.5,3.949,21.964,21.964,0,0,0-6.31,12.8,10.368,10.368,0,0,0,.51,4.521,5.567,5.567,0,0,0,1.85,2.611,4.8,4.8,0,0,0,2.29.956h0.64a10.771,10.771,0,0,0,6.25-2.038,30.292,30.292,0,0,0,5.23-4.585,33.8,33.8,0,0,0,3.7-4.84,21.85,21.85,0,0,1,1.78-2.674Zm-5.99-8.47c0.76,0.808.89,2,.38,3.566a14.4,14.4,0,0,1-3.96,5.413,32.78,32.78,0,0,1-9.69,5.859,35.066,35.066,0,0,1,1.6-6.241,18.4,18.4,0,0,1,2.93-5.031,13.161,13.161,0,0,1,5.29-3.884h0Q1488.645,663.939,1489.8,665.146Zm24.48,9.488a62.445,62.445,0,0,1-4.27,5.859,44.894,44.894,0,0,1-4.53,4.9c-1.36,1.232-2.42,1.847-3.19,1.847s-0.89-1.146-.38-3.439q0.765-2.546,1.66-4.9a38.1,38.1,0,0,1,2.04-4.521q0.255-.508.57-1.21a4.381,4.381,0,0,0,.38-1.465,2.527,2.527,0,0,0-.31-1.464,3.135,3.135,0,0,0-1.53-1.21,21.012,21.012,0,0,0-2.3-.956,13.173,13.173,0,0,1-2.17-.955,4.852,4.852,0,0,0,.51-1.337,13.975,13.975,0,0,0,.38-1.974q0.255-3.181-1.14-3.63a2.376,2.376,0,0,0-2.55.7,4.2,4.2,0,0,0-1.15,3.12q0,1.976,3.06,3.5a16.3,16.3,0,0,1-1.09,2.038c-0.55.935-1.12,1.891-1.72,2.866s-1.4,2.228-2.42,3.757a0.356,0.356,0,0,0,.06.446c0.13,0.127.28,0.107,0.45-.064,0.77-1.274,1.53-2.462,2.3-3.566,0.59-.933,1.19-1.889,1.78-2.866a20.051,20.051,0,0,0,1.28-2.356,2.251,2.251,0,0,1,1.21.637,13.934,13.934,0,0,1,1.34,1.019,2.338,2.338,0,0,1,.95,2.483,13.288,13.288,0,0,1-.83,2.611q-1.53,2.931-2.67,5.54a29.994,29.994,0,0,0-1.79,5.413c-0.34,1.445-.3,2.464.13,3.057a1.949,1.949,0,0,0,1.66.891,6.511,6.511,0,0,0,3.76-1.592,29.162,29.162,0,0,0,4.14-3.884q2.04-2.293,3.83-4.649c1.19-1.57,2.12-2.865,2.81-3.884h0Zm-16.07-9.233a3.876,3.876,0,0,1,0-1.974,2.087,2.087,0,0,1,.89-1.274c0.43-.254.85-0.083,1.28,0.51a3.468,3.468,0,0,1,.06,2.165,8.752,8.752,0,0,1-.83,2.038A1.966,1.966,0,0,1,1498.21,665.4Zm69.83-17.13q-5.43-.126-10.84-0.446-5.43-.317-10.72-0.573c-3.53-.169-7.07-0.211-10.65-0.127-1.95.085-3.44,0.149-4.46,0.191s-2,.063-2.93.063q2.16-4.327,5.03-9.679t6.19-10.507a86.488,86.488,0,0,1,7.02-9.488,32.5,32.5,0,0,1,7.39-6.623c0.68-.338,1.11-0.255,1.28.255a2.967,2.967,0,0,1,.13.891,3.478,3.478,0,0,0,.25-1.91,3,3,0,0,0-.83-1.847,2.4,2.4,0,0,0-1.91-.637,4.911,4.911,0,0,0-2.87,1.72,68.08,68.08,0,0,0-7.53,8.342,112.46,112.46,0,0,0-6.69,9.743q-3.135,5.1-5.81,10.252t-4.84,9.743a189.187,189.187,0,0,0-35.46,7.26q-0.765.257-1.53,0.573a14.487,14.487,0,0,1-1.66.573q9.7-2.675,18.5-4.33a155.6,155.6,0,0,1,17.85-2.293,4.65,4.65,0,0,0,.77-0.063,4.641,4.641,0,0,1,.76-0.064q-3.945,8.153-7.33,16.175a91.114,91.114,0,0,0-5.17,16.429q-1.02,4.459-.57,6.05a1.557,1.557,0,0,0,1.79,1.4,7.367,7.367,0,0,0,3.31-1.847,35.544,35.544,0,0,0,3.89-3.821,51.853,51.853,0,0,0,4.02-4.776q1.845-2.484,2.87-4.139v-1.146q-1.275,2.039-3.13,4.585a39.223,39.223,0,0,1-4.01,4.712c-1.96,2.123-3.38,3.291-4.28,3.5a1.2,1.2,0,0,1-1.65-.955,8.948,8.948,0,0,1,.19-3.757,52.3,52.3,0,0,1,1.34-5.158q0.825-2.674,1.59-4.9a27.782,27.782,0,0,1,1.15-2.993q1.785-4.457,3.7-8.725t4.08-8.469a4.826,4.826,0,0,1,.64-1.146,5.13,5.13,0,0,0,.63-1.146c2.47-.084,4.91-0.128,7.34-0.128h7.2q6.375,0,12.18.51t11.55,0.764a83.685,83.685,0,0,0,9.82-.064,45.939,45.939,0,0,0,9.24-1.528,32.754,32.754,0,0,0,8.23-3.5,25,25,0,0,0,6.89-6.24,39.528,39.528,0,0,1-9.82,6.177,33,33,0,0,1-11.23,2.738A93.523,93.523,0,0,1,1568.04,648.271Zm-21.81,27.892a11.2,11.2,0,0,1-1.92,2.038,10.768,10.768,0,0,1-1.97,1.273,13.167,13.167,0,0,1-2.43.892c0.6-.934,1.22-2.016,1.85-3.248a24.219,24.219,0,0,0,1.6-3.884,14.97,14.97,0,0,0,.7-3.949,6.379,6.379,0,0,0-.7-3.311,3.817,3.817,0,0,0-2.49-2.038,6.793,6.793,0,0,0-3.32.064,15.214,15.214,0,0,0-3.37,1.337,14.546,14.546,0,0,0-2.68,1.783,27.918,27.918,0,0,0-7.02,8.533,28.517,28.517,0,0,0-1.46,4.076,16.429,16.429,0,0,0-.71,4.585,5.731,5.731,0,0,0,1.15,3.63c0.77,0.977,2.08,1.379,3.96,1.21a11.285,11.285,0,0,0,6.88-2.675,36.147,36.147,0,0,0,4.98-5.222,15.721,15.721,0,0,0,3.5-1.273,11.132,11.132,0,0,0,2.49-1.72,11.887,11.887,0,0,0,1.85-2.229c0.55-.847,1.13-1.739,1.72-2.674a0.319,0.319,0,0,0,0-.51c-0.17-.169-0.34-0.127-0.51.128A36.014,36.014,0,0,1,1546.23,676.163Zm-6.19-1.4a37.769,37.769,0,0,1-2.68,6.113h-0.51q-3.57,0-4.72-2.165a7.608,7.608,0,0,1-.7-4.9,15.587,15.587,0,0,1,1.92-5.286,7.352,7.352,0,0,1,3.25-3.311q2.415-1.019,3.89.127,1.455,1.146.83,5.1A42.7,42.7,0,0,1,1540.04,674.762Zm-14.09,11.271a14.334,14.334,0,0,1,.45-5.413,36.763,36.763,0,0,1,2.1-6.049,25.665,25.665,0,0,1,2.36-4.394,16.4,16.4,0,0,0-.7,4.2,8.514,8.514,0,0,0,.64,3.693,5.607,5.607,0,0,0,2.16,2.611,7.316,7.316,0,0,0,4.02.955,24.926,24.926,0,0,1-3.38,4.331,7.392,7.392,0,0,1-4.78,2.292C1527.12,688.348,1526.16,687.605,1525.95,686.033Z" transform="translate(-984 -510)"/>
    <path id="BIENVENIDO_A_LA_WEB_DEL_ENLACE_DE" data-name="BIENVENIDO A LA WEB  DEL ENLACE DE" class="cls-2" d="M1121.06,513.97h5.42a5.264,5.264,0,0,1,1.96.335,4.011,4.011,0,0,1,1.36.853,3.478,3.478,0,0,1,.8,1.145,3.26,3.26,0,0,1,.26,1.231,2.956,2.956,0,0,1-.31,1.307,3.564,3.564,0,0,1-.81,1.08,4.22,4.22,0,0,1-1.18.756,3.5,3.5,0,0,1-1.42.291v0.087a11.232,11.232,0,0,1,1.25.151,4.931,4.931,0,0,1,1.51.518,3.787,3.787,0,0,1,1.28,1.124,3.242,3.242,0,0,1,.54,1.965,4.622,4.622,0,0,1-.27,1.545,3.679,3.679,0,0,1-.88,1.371,4.522,4.522,0,0,1-1.61.983,6.924,6.924,0,0,1-2.45.378h-5.45V513.97Zm5.11,14.17a4.184,4.184,0,0,0,1.32-.206,2.956,2.956,0,0,0,1.07-.615,3.107,3.107,0,0,0,.73-0.994,3.154,3.154,0,0,0,.27-1.339,3.662,3.662,0,0,0-.25-1.318,3.07,3.07,0,0,0-.76-1.1,3.7,3.7,0,0,0-1.29-.756,5.487,5.487,0,0,0-1.85-.281h-2.38v6.61h3.14Zm-0.55-7.56a3.388,3.388,0,0,0,1.22-.216,3.154,3.154,0,0,0,1.02-.605,2.618,2.618,0,0,0,.69-0.929,2.693,2.693,0,0,0,.25-1.166,3.141,3.141,0,0,0-.17-0.994,2.479,2.479,0,0,0-.55-0.886,2.849,2.849,0,0,0-.98-0.626,3.826,3.826,0,0,0-1.43-.238h-2.64v5.66h2.59Zm17.75-6.61v15.12h-1.96V513.97h1.96Zm21.02,0v1.188h-7.81v5.422h6.71v0.993h-6.71V527.9h7.81v1.188h-9.77V513.97h9.77Zm21.62,0v15.379h-0.11l-12-11.815h-0.08V529.09h-1V513.711h0.11l12,11.815h0.08V513.97h1Zm10.77,0,5.18,12.442h0.09l5.04-12.442h1.12l-6.14,15.12h-1.29l-6.34-15.12h2.34Zm29.64,0v1.188h-7.81v5.422h6.71v0.993h-6.71V527.9h7.81v1.188h-9.77V513.97h9.77Zm21.62,0v15.379h-0.11l-12-11.815h-0.09V529.09h-0.99V513.711h0.11l12,11.815h0.08V513.97h1Zm13.21,0v15.12h-1.97V513.97h1.97Zm16.69,15.12a8.243,8.243,0,0,0,3.05-.562,7.6,7.6,0,0,0,2.49-1.576,7.318,7.318,0,0,0,1.69-2.409,7.485,7.485,0,0,0,.62-3.056,7.406,7.406,0,0,0-.6-2.981,7.016,7.016,0,0,0-1.66-2.387,7.877,7.877,0,0,0-2.56-1.577,9.143,9.143,0,0,0-3.29-.572h-4.97v15.12h5.23Zm-3.27-14.17h2.38a6.971,6.971,0,0,1,2.82.54,5.935,5.935,0,0,1,2.06,1.458,6.089,6.089,0,0,1,1.26,2.117,7.262,7.262,0,0,1,.44,2.5,8,8,0,0,1-.37,2.344,6.008,6.008,0,0,1-3.2,3.672,6.934,6.934,0,0,1-3.01.594h-2.38V514.92Zm18.5,4a7.626,7.626,0,0,1,1.46-2.538,7.88,7.88,0,0,1,2.53-1.911,8.245,8.245,0,0,1,3.68-.756,8.552,8.552,0,0,1,3.75.767,8.206,8.206,0,0,1,2.62,1.933,7.947,7.947,0,0,1,2.04,5.119,6.866,6.866,0,0,1-.23,1.685,8.889,8.889,0,0,1-.67,1.76,8.253,8.253,0,0,1-1.14,1.663,7.554,7.554,0,0,1-1.63,1.394,8.383,8.383,0,0,1-2.12.961,9.028,9.028,0,0,1-2.62.356,8.149,8.149,0,0,1-3.68-.767,7.919,7.919,0,0,1-2.53-1.933,7.746,7.746,0,0,1-1.46-2.538,8.036,8.036,0,0,1-.46-2.581A8.2,8.2,0,0,1,1293.17,518.916Zm2.12,5.39a6.515,6.515,0,0,0,1.28,2.17,5.708,5.708,0,0,0,1.91,1.415,5.628,5.628,0,0,0,2.4.508,5.838,5.838,0,0,0,2.41-.508,6.126,6.126,0,0,0,1.99-1.415,6.666,6.666,0,0,0,1.35-2.17,7.956,7.956,0,0,0,0-5.552,6.666,6.666,0,0,0-1.35-2.17,6.126,6.126,0,0,0-1.99-1.415,5.854,5.854,0,0,0-2.41-.508,5.643,5.643,0,0,0-2.4.508,5.708,5.708,0,0,0-1.91,1.415,6.515,6.515,0,0,0-1.28,2.17A8.433,8.433,0,0,0,1295.29,524.306Zm36.53,0.334-1.91,4.45h-0.99l6.4-15.12h1.08l7.05,15.12h-2.1l-2.07-4.45h-7.46Zm3.61-8.251h-0.09l-3.11,7.279h6.59Zm38.98,12.7V527.9h-7.81V513.97h-1.96v15.12h9.77Zm9.38-4.45-1.9,4.45h-0.99l6.4-15.12h1.08l7.04,15.12h-2.09l-2.08-4.45h-7.46Zm3.61-8.251h-0.08l-3.12,7.279h6.6Zm29.26-2.419,4.45,12.55h0.09l4.3-12.55h0.93l4.21,12.614h0.09l4.48-12.614h0.99l-5.36,15.12h-1.28l-4-11.815h-0.1l-4.13,11.815h-1.3l-5.36-15.12h1.99Zm37.75,0v1.188h-7.81v5.422h6.7v0.993h-6.7V527.9h7.81v1.188h-9.78V513.97h9.78Zm8.43,0h5.41a5.282,5.282,0,0,1,1.97.335,4.112,4.112,0,0,1,1.36.853,3.446,3.446,0,0,1,.79,1.145,3.26,3.26,0,0,1,.26,1.231,2.947,2.947,0,0,1-.3,1.307,3.564,3.564,0,0,1-.81,1.08,4.22,4.22,0,0,1-1.18.756,3.55,3.55,0,0,1-1.43.291v0.087a11.1,11.1,0,0,1,1.26.151,4.931,4.931,0,0,1,1.51.518,3.787,3.787,0,0,1,1.28,1.124,3.242,3.242,0,0,1,.54,1.965,4.4,4.4,0,0,1-.28,1.545,3.653,3.653,0,0,1-.87,1.371,4.613,4.613,0,0,1-1.61.983,6.962,6.962,0,0,1-2.45.378h-5.45V513.97Zm5.11,14.17a4.122,4.122,0,0,0,1.31-.206,2.92,2.92,0,0,0,1.8-1.609,3.154,3.154,0,0,0,.27-1.339,3.46,3.46,0,0,0-.25-1.318,2.923,2.923,0,0,0-.75-1.1,3.656,3.656,0,0,0-1.3-.756,5.426,5.426,0,0,0-1.84-.281h-2.39v6.61h3.15Zm-0.55-7.56a3.427,3.427,0,0,0,1.22-.216,3.381,3.381,0,0,0,1.02-.605,2.88,2.88,0,0,0,.69-0.929,2.846,2.846,0,0,0,.25-1.166,2.9,2.9,0,0,0-.18-0.994,2.229,2.229,0,0,0-.55-0.886,2.712,2.712,0,0,0-.97-0.626,3.919,3.919,0,0,0-1.44-.238h-2.64v5.66h2.6Zm-282.45,36.41a8.243,8.243,0,0,0,3.05-.562,7.752,7.752,0,0,0,2.5-1.576,7.663,7.663,0,0,0,1.7-8.446,7.016,7.016,0,0,0-1.66-2.387,7.773,7.773,0,0,0-2.56-1.577,9.143,9.143,0,0,0-3.29-.572h-4.97v15.12h5.23Zm-3.26-14.17h2.37a6.971,6.971,0,0,1,2.82.54,5.935,5.935,0,0,1,2.06,1.458,6.089,6.089,0,0,1,1.26,2.117,7.262,7.262,0,0,1,.44,2.5,8,8,0,0,1-.37,2.344,6.008,6.008,0,0,1-3.2,3.672,6.934,6.934,0,0,1-3.01.594h-2.37V542.82Zm29.31-.95v1.188h-7.8v5.422h6.7v0.993h-6.7V555.8h7.8v1.188h-9.77V541.87H1211Zm18.21,15.12V555.8h-7.81V541.87h-1.97v15.12h9.78Zm30.96-15.12v1.188h-7.81v5.422h6.7v0.993h-6.7V555.8h7.81v1.188h-9.78V541.87h9.78Zm21.62,0v15.379h-0.11l-12-11.815h-0.09V556.99h-0.99V541.611h0.11l12,11.815h0.08V541.87h1Zm20.15,15.12V555.8h-7.81V541.87h-1.96v15.12h9.77Zm9.38-4.45-1.9,4.45h-1l6.4-15.12h1.08l7.05,15.12h-2.09l-2.08-4.45h-7.46Zm3.61-8.251h-0.08l-3.12,7.279h6.6Zm29.84,10.5a6.577,6.577,0,0,1-.82.756,6.686,6.686,0,0,1-1.35.81,10.24,10.24,0,0,1-1.91.637,10.723,10.723,0,0,1-2.47.259,9.442,9.442,0,0,1-3.76-.68,7.419,7.419,0,0,1-2.6-1.793,7.024,7.024,0,0,1-1.5-2.549,8.978,8.978,0,0,1-.49-2.948,7.861,7.861,0,0,1,.61-3.165,6.9,6.9,0,0,1,1.7-2.419,7.666,7.666,0,0,1,2.65-1.544,10.37,10.37,0,0,1,3.43-.54,9.279,9.279,0,0,1,2.31.259,6.687,6.687,0,0,1,1.78.713,4.81,4.81,0,0,1,1.26,1.08,5.733,5.733,0,0,1,.83,1.361h-1.6a2.571,2.571,0,0,0-.53-0.9,3.61,3.61,0,0,0-.97-0.788,5.957,5.957,0,0,0-1.36-.562,6.7,6.7,0,0,0-4.22.281,5.98,5.98,0,0,0-3.3,3.488,7.5,7.5,0,0,0-.47,2.69,8.166,8.166,0,0,0,.44,2.656,6.626,6.626,0,0,0,1.31,2.247,6.384,6.384,0,0,0,2.16,1.555,7.235,7.235,0,0,0,2.99.583,7.372,7.372,0,0,0,5.23-2.073Zm17.99-12.917v1.188h-7.81v5.422h6.7v0.993h-6.7V555.8h7.81v1.188h-9.78V541.87h9.78Zm26.63,15.12a8.243,8.243,0,0,0,3.05-.562,7.752,7.752,0,0,0,2.5-1.576,7.441,7.441,0,0,0,1.68-2.409,7.325,7.325,0,0,0,.62-3.056,7.573,7.573,0,0,0-.59-2.981,7.184,7.184,0,0,0-1.67-2.387,7.773,7.773,0,0,0-2.56-1.577,9.143,9.143,0,0,0-3.29-.572h-4.97v15.12h5.23Zm-3.26-14.17h2.37a7.02,7.02,0,0,1,2.83.54,6.03,6.03,0,0,1,2.06,1.458,6.41,6.41,0,0,1,1.26,2.117,7.5,7.5,0,0,1,.43,2.5,7.68,7.68,0,0,1-.37,2.344,6.038,6.038,0,0,1-1.16,2.127,5.951,5.951,0,0,1-2.04,1.545,6.934,6.934,0,0,1-3.01.594h-2.37V542.82Zm29.32-.95v1.188h-7.81v5.422h6.7v0.993h-6.7V555.8h7.81v1.188h-9.78V541.87h9.78Z" transform="translate(-984 -510)"/>
  </g>
</svg>
