<svg xmlns="http://www.w3.org/2000/svg" width="625" height="204" viewBox="0 0 625 204">
  <metadata><?xpacket begin="﻿" id="W5M0MpCehiHzreSzNTczkc9d"?>
<x:xmpmeta xmlns:x="adobe:ns:meta/" x:xmptk="Adobe XMP Core 5.6-c138 79.159824, 2016/09/14-01:09:01        ">
   <rdf:RDF xmlns:rdf="http://www.w3.org/1999/02/22-rdf-syntax-ns#">
      <rdf:Description rdf:about=""/>
   </rdf:RDF>
</x:xmpmeta>
                                                                                                    
                                                                                                    
                                                                                                    
                                                                                                    
                                                                                                    
                                                                                                    
                                                                                                    
                                                                                                    
                                                                                                    
                                                                                                    
                                                                                                    
                                                                                                    
                                                                                                    
                                                                                                    
                                                                                                    
                                                                                                    
                                                                                                    
                                                                                                    
                                                                                                    
                                                                                                    
                           
<?xpacket end="w"?></metadata>
<defs>
    <style>
      .cls-1 {
        fill: #4d5d55;
      }

      .cls-1, .cls-2 {
        fill-rule: evenodd;
      }

      .cls-2 {
        fill: #ec7d64;
      }
    </style>
  </defs>
  <g id="letter">
    <g>
      <path id="Macarena_y_Alberto_" data-name="Macarena y Alberto " class="cls-1" d="M1083.52,301.514a49.373,49.373,0,0,1-3.5-13.639,65.6,65.6,0,0,1,0-14.285,98.662,98.662,0,0,1,2.34-13.38,97.3,97.3,0,0,1,10.56-26.307,85.952,85.952,0,0,1,18.09-21.783,94.163,94.163,0,0,1,7.84-6.206,78.994,78.994,0,0,1,8.43-5.3,45.335,45.335,0,0,1,7.26-3.232q3.165-1.034,4.34-.129a1.036,1.036,0,0,1,.06,1.228,1.128,1.128,0,0,1-.71.97,5.436,5.436,0,0,0,1.88-1.035,2.692,2.692,0,0,0,1.1-1.809,0.89,0.89,0,0,0-.97-1.164,7.389,7.389,0,0,0-2.01.259,32.68,32.68,0,0,0-6.42,2q-3.165,1.357-6.02,2.78a114.941,114.941,0,0,0-23.34,15.384,118.009,118.009,0,0,0-18.93,20.425q-4.14,5.819-7.84,12.023t-7.07,12.54q-2.325,4.526-4.47,8.984t-4.34,8.985a115.439,115.439,0,0,0,3.24-14.091q1.17-7.109,2.2-14.479,0.915-7.109,2.01-14.22a67.016,67.016,0,0,1,3.7-13.833,48.1,48.1,0,0,1,11.15-17.323,27.5,27.5,0,0,1,2.98-2.585,22.173,22.173,0,0,1,3.37-2.069,15.575,15.575,0,0,1,1.81-.646,3.4,3.4,0,0,1,1.56-.129,0.779,0.779,0,0,1,.71.711,3.016,3.016,0,0,1-.71,1.745,4.618,4.618,0,0,0,.97-1.034,5.391,5.391,0,0,0,.84-1.552,1.894,1.894,0,0,0,.07-1.292c-0.13-.344-0.58-0.473-1.36-0.388a12.47,12.47,0,0,0-5.77,2.521,46.39,46.39,0,0,0-6.16,5.3c-1.99,2.026-3.82,4.052-5.51,6.076s-2.96,3.642-3.82,4.848a119.952,119.952,0,0,0-7.59,12.087q-3.435,6.271-6.67,12.734-5.445,10.471-9.92,20.037t-9.79,18.745q-3.495,6.078-7.58,11.829A54.136,54.136,0,0,1,1020,302.1a35.022,35.022,0,0,1-4.93,3.361,28.106,28.106,0,0,1-5.64,2.456,17.057,17.057,0,0,1-5.83.776,10.819,10.819,0,0,1-5.381-1.681,10.272,10.272,0,0,1-4.6-4.977,20.943,20.943,0,0,1-1.62-6.852,34.262,34.262,0,0,1,.259-7.3,53.192,53.192,0,0,1,1.3-6.464,57.948,57.948,0,0,1,4.927-13.056,43.514,43.514,0,0,1,8.292-11.118,38.5,38.5,0,0,1,10.89-7.433,33.794,33.794,0,0,1,12.84-3.038,40.438,40.438,0,0,1,4.54,0,9.119,9.119,0,0,1,4.02,1.163,1.676,1.676,0,0,1,.97,1.228,2.213,2.213,0,0,1-.33,1.358,3.576,3.576,0,0,1-1.03,1.1,2.145,2.145,0,0,1-1.17.453,11.785,11.785,0,0,0,4.8-1.228,2.893,2.893,0,0,0,1.75-2.069,2.477,2.477,0,0,0-1.49-2.068,11.332,11.332,0,0,0-4.93-1.228,47.377,47.377,0,0,0-8.69.323,41.909,41.909,0,0,0-10.24,2.65,33.872,33.872,0,0,0-4.86,2.392,37.784,37.784,0,0,0-4.21,2.908,51.411,51.411,0,0,0-9.4,9.5,63.042,63.042,0,0,0-6.938,11.441,53.966,53.966,0,0,0-3.954,13.445,25.282,25.282,0,0,0,1.361,13.315,14.465,14.465,0,0,0,3.5,5.365,11.823,11.823,0,0,0,5.7,3.038,18.261,18.261,0,0,0,10.246-.582,31.923,31.923,0,0,0,8.94-5.041,51.2,51.2,0,0,0,7.58-7.434q3.435-4.139,6.03-7.886,4.155-5.944,7.65-12.087,3.51-6.138,6.87-12.475,6.48-12.28,11.87-23.334a225.482,225.482,0,0,1,11.86-21.4,85.843,85.843,0,0,0-5.12,13.38q-2.01,6.917-3.57,13.9-1.035,4.527-1.88,9.178t-1.75,9.308q-1.17,6.594-2.59,12.928t-3.24,12.8c-0.35,1.206-.67,2.347-0.97,3.426s-0.63,2.218-.98,3.426a0.564,0.564,0,0,0,.46.258,0.548,0.548,0,0,1,.45.259q3.765-8.662,7.65-17.194t8.3-16.676q4.395-8.145,9.46-15.9a153.141,153.141,0,0,1,11.02-14.867q1.17-1.421,2.4-2.779c0.82-.905,1.66-1.83,2.53-2.78a92.226,92.226,0,0,0-12.77,25.532,73.849,73.849,0,0,0-3.44,28.247,72.763,72.763,0,0,0,2.59,13.38,41.454,41.454,0,0,0,5.97,12.346,25.682,25.682,0,0,0,10.37,8.855,27.093,27.093,0,0,0,12.96,2.392,36.034,36.034,0,0,0,12.32-2.715,73.933,73.933,0,0,0,11.28-5.817,97.012,97.012,0,0,0,10.43-7.434q5-4.072,9.53-8.467a158.136,158.136,0,0,1-15.23,12.216,70.644,70.644,0,0,1-15.95,8.6,40.341,40.341,0,0,1-15.55,2.715,23.252,23.252,0,0,1-13.94-5.3A30.63,30.63,0,0,1,1083.52,301.514Zm41.49-25.015a36.072,36.072,0,0,1-2.21,3.426q-1.425,2.005-3.11,4.007a38.239,38.239,0,0,1-3.37,3.555,7.887,7.887,0,0,1-3.11,1.94,1.351,1.351,0,0,1-1.82-.711c-0.34-.732-0.25-2.047.26-3.943,0.09-.259.28-1.012,0.59-2.263s0.71-2.65,1.23-4.2,1.12-3.1,1.81-4.654a9.285,9.285,0,0,1,2.47-3.49q1.035-.9,1.29,0a3.243,3.243,0,0,1,.13,1.034,3.568,3.568,0,0,0,.26-2,3.9,3.9,0,0,0-.71-2,1.524,1.524,0,0,0-1.62-.582c-0.69.13-1.47,0.885-2.33,2.263a3.98,3.98,0,0,0-3.18-2.2,8.556,8.556,0,0,0-3.95.388,14.741,14.741,0,0,0-3.7,2,27.726,27.726,0,0,0-3.63,3.167,31.627,31.627,0,0,0-3.24,3.943,24.038,24.038,0,0,0-2.4,4.2q-2.07,5.041-2.07,7.757t1.29,3.62a4.113,4.113,0,0,0,3.5.323,14.512,14.512,0,0,0,4.54-2.2,27.34,27.34,0,0,0,4.54-4.007,18.079,18.079,0,0,0,3.37-5.107l-1.17,3.878c-0.69,2.931-.89,4.957-0.58,6.076a1.963,1.963,0,0,0,2.01,1.681,7.019,7.019,0,0,0,4.21-2,38.3,38.3,0,0,0,4.6-4.589q2.205-2.585,3.96-5.042t2.4-3.49Zm-19.32,9.114q-3.24,3.3-5.77,3.943a3.111,3.111,0,0,1-3.76-1.293q-1.23-1.939.33-6.464a27.88,27.88,0,0,1,5.83-10.212q3.5-3.618,6.35-4.267t4.02,1.552q1.17,2.2-1.3,7.368A28.536,28.536,0,0,1,1105.69,285.613Zm38.89-9.114a33.791,33.791,0,0,1-2.27,3.49,41.355,41.355,0,0,1-3.43,4.137,33.947,33.947,0,0,1-4.15,3.749,10.235,10.235,0,0,1-4.54,2.069,3.987,3.987,0,0,1-2.46-.259,3.763,3.763,0,0,1-1.82-1.745,8.314,8.314,0,0,1-.77-3.361,15.8,15.8,0,0,1,.77-5.236,20.4,20.4,0,0,1,3.57-7.045,13.578,13.578,0,0,1,5.25-4.46c1.73-.776,2.87-0.926,3.44-0.453a2.443,2.443,0,0,1,.71,2.2,11.073,11.073,0,0,1-.71,2.973q-0.585,1.488-.72,1.875a5.457,5.457,0,0,0-.45.84,4.681,4.681,0,0,1-.46.84q1.425-1.162,3.18-2.844a6.264,6.264,0,0,0,2.01-3.878,1.93,1.93,0,0,0-.39-1.616,3.515,3.515,0,0,0-1.29-.905,4.232,4.232,0,0,0-1.63-.323,5.9,5.9,0,0,0-1.36.129,15.247,15.247,0,0,0-8.1,3.814,19.464,19.464,0,0,0-5.12,6.787,22,22,0,0,0-1.49,4.524,17.621,17.621,0,0,0-.45,4.913,6.868,6.868,0,0,0,1.36,3.943,4.649,4.649,0,0,0,3.95,1.616,11.075,11.075,0,0,0,6.22-1.875,25.749,25.749,0,0,0,5.06-4.331,36.992,36.992,0,0,0,3.69-4.783c1-1.551,1.75-2.67,2.27-3.361Zm28,0a33.844,33.844,0,0,1-2.2,3.426q-1.425,2.005-3.11,4.007a39.608,39.608,0,0,1-3.37,3.555,7.956,7.956,0,0,1-3.11,1.94,1.351,1.351,0,0,1-1.82-.711c-0.34-.732-0.26-2.047.26-3.943,0.09-.259.28-1.012,0.58-2.263s0.72-2.65,1.24-4.2a49.573,49.573,0,0,1,1.81-4.654,9.272,9.272,0,0,1,2.46-3.49c0.69-.6,1.13-0.6,1.3,0a3.243,3.243,0,0,1,.13,1.034,3.658,3.658,0,0,0,.26-2,3.987,3.987,0,0,0-.71-2,1.524,1.524,0,0,0-1.62-.582c-0.7.13-1.47,0.885-2.34,2.263a3.964,3.964,0,0,0-3.17-2.2,8.613,8.613,0,0,0-3.96.388,14.863,14.863,0,0,0-3.69,2,26.487,26.487,0,0,0-3.63,3.167,31.627,31.627,0,0,0-3.24,3.943,24.038,24.038,0,0,0-2.4,4.2q-2.085,5.041-2.08,7.757c0,1.81.44,3.018,1.3,3.62a4.108,4.108,0,0,0,3.5.323,14.617,14.617,0,0,0,4.54-2.2,28.163,28.163,0,0,0,4.54-4.007,18.3,18.3,0,0,0,3.37-5.107l-1.17,3.878c-0.69,2.931-.89,4.957-0.58,6.076a1.963,1.963,0,0,0,2.01,1.681,7.044,7.044,0,0,0,4.21-2,38.3,38.3,0,0,0,4.6-4.589q2.205-2.585,3.96-5.042c1.16-1.636,1.96-2.8,2.39-3.49Zm-19.31,9.114c-2.16,2.2-4.09,3.513-5.77,3.943a3.107,3.107,0,0,1-3.76-1.293q-1.23-1.939.32-6.464a27.887,27.887,0,0,1,5.84-10.212q3.495-3.618,6.35-4.267t4.02,1.552c0.78,1.466.34,3.922-1.3,7.368A28.536,28.536,0,0,1,1153.27,285.613Zm38.11-8.08a64.866,64.866,0,0,1-4.34,5.947,46.234,46.234,0,0,1-4.6,4.977c-1.39,1.25-2.47,1.875-3.25,1.875s-0.9-1.164-.38-3.491q0.765-2.585,1.68-4.977a40.731,40.731,0,0,1,2.07-4.589c0.18-.344.37-0.754,0.59-1.228a4.779,4.779,0,0,0,.39-1.487,2.617,2.617,0,0,0-.33-1.487,3.119,3.119,0,0,0-1.55-1.228,20.945,20.945,0,0,0-2.34-.969,13.24,13.24,0,0,1-2.2-.97,5.284,5.284,0,0,0,.52-1.357,16,16,0,0,0,.39-2q0.255-3.23-1.17-3.685a2.422,2.422,0,0,0-2.59.711,4.27,4.27,0,0,0-1.17,3.168q0,2.006,3.11,3.555a17.124,17.124,0,0,1-1.1,2.068c-0.56.95-1.15,1.919-1.75,2.909s-1.43,2.262-2.46,3.814a0.351,0.351,0,0,0,.06.452c0.13,0.129.28,0.109,0.46-.065,0.77-1.292,1.55-2.5,2.33-3.619,0.6-.948,1.21-1.917,1.81-2.909a19.687,19.687,0,0,0,1.3-2.392,2.236,2.236,0,0,1,1.23.647,12.676,12.676,0,0,1,1.36,1.034,2.394,2.394,0,0,1,.98,2.521,13.613,13.613,0,0,1-.85,2.65q-1.545,2.976-2.72,5.623a30.049,30.049,0,0,0-1.81,5.5c-0.35,1.466-.31,2.5.13,3.1a1.975,1.975,0,0,0,1.68.9,6.656,6.656,0,0,0,3.83-1.616,30.165,30.165,0,0,0,4.21-3.943q2.07-2.327,3.89-4.718t2.85-3.943h0Zm-16.33-9.372a3.778,3.778,0,0,1,0-2,2.09,2.09,0,0,1,.9-1.293,0.95,0.95,0,0,1,1.3.517,3.431,3.431,0,0,1,.06,2.2,8.534,8.534,0,0,1-.84,2.068A1.974,1.974,0,0,1,1175.05,268.161Zm36.03,8.338q-1.155,1.939-2.72,4.072a43.588,43.588,0,0,1-3.37,4.072,28.149,28.149,0,0,1-3.82,3.426,10,10,0,0,1-3.96,1.875,5.224,5.224,0,0,1-2.85-.259,4.835,4.835,0,0,1-2.01-1.616,6.135,6.135,0,0,1-.84-4.072q9.585-4.655,13.35-8.144c2.51-2.327,3.8-4.244,3.89-5.753a2.825,2.825,0,0,0-2.27-3.038,8.636,8.636,0,0,0-5.12,0,15.255,15.255,0,0,0-6.61,4.007,22.37,22.37,0,0,0-6.42,12.993,10.508,10.508,0,0,0,.52,4.589,5.683,5.683,0,0,0,1.88,2.65,4.931,4.931,0,0,0,2.33.97h0.65a10.91,10.91,0,0,0,6.35-2.069,30.655,30.655,0,0,0,5.32-4.654,33.526,33.526,0,0,0,3.76-4.912,23.48,23.48,0,0,1,1.81-2.715Zm-6.09-8.6q1.17,1.23.39,3.62a14.664,14.664,0,0,1-4.02,5.494,33.41,33.41,0,0,1-9.85,5.947,35.052,35.052,0,0,1,1.62-6.335,18.951,18.951,0,0,1,2.98-5.106,13.341,13.341,0,0,1,5.38-3.943h0C1203.05,266.977,1204.21,267.084,1204.99,267.9Zm32.28,8.6a36.071,36.071,0,0,1-2.07,3.167c-0.96,1.337-1.97,2.65-3.05,3.943s-2.18,2.5-3.31,3.62a10.418,10.418,0,0,1-2.85,2.2,1.154,1.154,0,0,1-1.68-.388c-0.35-.6-0.26-1.939.26-4.008,0.51-1.81,1.1-3.64,1.75-5.494s1.18-3.6,1.62-5.236a28.9,28.9,0,0,0,.84-4.395,3.39,3.39,0,0,0-.71-2.844c-0.52-.517-1.49-0.517-2.92,0a24.789,24.789,0,0,0-4.47,2.2,40.457,40.457,0,0,0-4.28,2.973,12.781,12.781,0,0,0-2.46,2.327q0.51-1.164,1.23-3.038a10.773,10.773,0,0,0,.77-3.167,1.133,1.133,0,0,0-.97-1.422q-1.035-.127-4.02,2.327a4.363,4.363,0,0,1,1.17-.518,0.715,0.715,0,0,1,.71.13,0.73,0.73,0,0,1,.07.9,13.441,13.441,0,0,1-.65,1.939,16.417,16.417,0,0,1-.71,1.745,16.675,16.675,0,0,0-.72,1.745q-1.035,2.587-2.07,5.818c-0.69,2.155-1.28,4.136-1.75,5.946s-0.82,3.254-1.04,4.331-0.15,1.4.2,0.97a9.718,9.718,0,0,0,1.23-2.392q0.84-2,1.81-4.525t2.01-4.912a32.208,32.208,0,0,1,1.82-3.684,20.131,20.131,0,0,1,1.94-1.94c1.04-.947,2.18-1.894,3.44-2.844a30.361,30.361,0,0,1,3.63-2.391,4.653,4.653,0,0,1,2.53-.841c0.77,0.346,1.03,1.293.77,2.845a32.918,32.918,0,0,1-1.42,5.3q-1.05,2.974-2.14,6.14a37.5,37.5,0,0,0-1.49,5.236,5.125,5.125,0,0,0,.39,3.167c0.43,0.82,1.29,1.1,2.59.841a9.274,9.274,0,0,0,3.89-2.133,35.744,35.744,0,0,0,4.02-4.008,54.84,54.84,0,0,0,3.5-4.525c1.03-1.506,1.86-2.735,2.46-3.684Zm28.26,0a35.706,35.706,0,0,1-2.2,3.426c-0.96,1.337-1.99,2.672-3.11,4.007a38.287,38.287,0,0,1-3.38,3.555,7.887,7.887,0,0,1-3.11,1.94,1.34,1.34,0,0,1-1.81-.711c-0.35-.732-0.26-2.047.26-3.943,0.08-.259.28-1.012,0.58-2.263s0.71-2.65,1.23-4.2a49.682,49.682,0,0,1,1.82-4.654,9.272,9.272,0,0,1,2.46-3.49c0.69-.6,1.12-0.6,1.3,0a3.557,3.557,0,0,1,.13,1.034,3.658,3.658,0,0,0,.26-2,3.992,3.992,0,0,0-.72-2,1.524,1.524,0,0,0-1.62-.582c-0.69.13-1.47,0.885-2.33,2.263a3.965,3.965,0,0,0-3.18-2.2,8.584,8.584,0,0,0-3.95.388,15.091,15.091,0,0,0-3.7,2,27.726,27.726,0,0,0-3.63,3.167,33.5,33.5,0,0,0-3.24,3.943,25.391,25.391,0,0,0-2.4,4.2q-2.07,5.041-2.07,7.757c0,1.81.43,3.018,1.3,3.62a4.108,4.108,0,0,0,3.5.323,14.468,14.468,0,0,0,4.53-2.2,27.34,27.34,0,0,0,4.54-4.007,18.079,18.079,0,0,0,3.37-5.107l-1.16,3.878c-0.7,2.931-.89,4.957-0.59,6.076a1.963,1.963,0,0,0,2.01,1.681,7.041,7.041,0,0,0,4.22-2,39.048,39.048,0,0,0,4.6-4.589c1.47-1.723,2.78-3.4,3.95-5.042s1.97-2.8,2.4-3.49Zm-19.32,9.114q-3.24,3.3-5.76,3.943a3.107,3.107,0,0,1-3.76-1.293q-1.245-1.939.32-6.464a28.022,28.022,0,0,1,5.83-10.212c2.34-2.412,4.45-3.834,6.36-4.267s3.24,0.087,4.01,1.552,0.35,3.922-1.29,7.368A28.543,28.543,0,0,1,1246.21,285.613Zm63.53-.84a24.048,24.048,0,0,1-7.26,5.946q1.17-4.266,2.53-8.6c0.9-2.887,1.92-5.709,3.04-8.468a7.866,7.866,0,0,1,1.56-2.779c0.6-.647,1.08-0.194,1.42,1.357a4.383,4.383,0,0,0,.2-2.327,5.166,5.166,0,0,0-.78-2.262,1.43,1.43,0,0,0-1.56-.647c-0.64.13-1.36,0.927-2.13,2.392q-0.78,1.551-1.5,3.232c-0.47,1.121-.93,2.284-1.36,3.49q-0.9,1.294-2.78,3.685t-4.02,4.653a47.2,47.2,0,0,1-4.09,3.879c-1.29,1.078-2.33,1.531-3.11,1.357q-1.425-1.164.13-5.106t4.28-10.278q0.51-1.29,1.17-3.1a9.482,9.482,0,0,0,.64-3.1,1.135,1.135,0,0,0-1.1-1.357q-1.1-.064-3.95,2.262a9.1,9.1,0,0,1,1.17-.388,0.825,0.825,0,0,1,.71.065,0.734,0.734,0,0,1,.19.84,11.992,11.992,0,0,1-1.1,2.521q-0.975,1.875-1.62,3.167c-0.35.776-.93,2.048-1.75,3.814a48.174,48.174,0,0,0-2.14,5.429,20.579,20.579,0,0,0-1.04,5.042q-0.12,2.264,1.56,2.78c0.78,0.43,1.88.149,3.31-.841a37.123,37.123,0,0,0,4.53-3.813c1.6-1.552,3.13-3.188,4.61-4.913q2.19-2.584,3.63-4.395c-0.18.432-.46,1.357-0.85,2.779s-0.8,2.909-1.23,4.46-0.86,2.974-1.3,4.266a8.941,8.941,0,0,1-.9,2.2q-2.985,1.421-6.16,3.038t-5.12,2.65a62.558,62.558,0,0,0-12.77,8.726,80.108,80.108,0,0,0-11.02,11.7,65.047,65.047,0,0,0-7.84,12.992,36.6,36.6,0,0,0-3.37,12.6q-0.27,4.654,1.49,6.206a4.888,4.888,0,0,0,4.66.84,20.323,20.323,0,0,0,6.49-3.167,64.339,64.339,0,0,0,7.06-5.688c0.61-.6,1.62-1.725,3.05-3.362s3.09-3.642,4.99-6.011,3.91-5.086,6.03-8.144,4.17-6.335,6.15-9.825,3.85-7.155,5.58-10.989a74.27,74.27,0,0,0,4.15-11.7,21.922,21.922,0,0,0,8.04-6.464q2.85-3.877,5.31-7.5l-0.13-1.034A73.841,73.841,0,0,1,1309.74,284.773Zm-19.19,29.151q-3.495,6.657-6.74,11.635a79.143,79.143,0,0,1-5.77,7.951q-2.535,2.971-2.92,3.49a34.784,34.784,0,0,1-5.31,5.43,28.127,28.127,0,0,1-5.71,3.749,10.379,10.379,0,0,1-4.6,1.228,2.052,2.052,0,0,1-2.14-2,26.757,26.757,0,0,1,2.14-13.574,66.358,66.358,0,0,1,7.33-13.121,79.074,79.074,0,0,1,9.2-10.8,63.5,63.5,0,0,1,7.65-6.593q3.24-2.2,6.35-4.008a68.324,68.324,0,0,1,6.61-3.361,7.1,7.1,0,0,1,.91-0.388,7.53,7.53,0,0,0,.91-0.387c-0.09.258-.24,0.666-0.46,1.228s-0.41,1.141-.58,1.745-0.37,1.206-.58,1.81-0.37,1.034-.46,1.293A78.652,78.652,0,0,1,1290.55,313.924Zm145.59,0.388a34.583,34.583,0,0,1-8.04-9.114,47.864,47.864,0,0,1-5.06-11.441,68.746,68.746,0,0,1-2.46-12.087,86.923,86.923,0,0,1-.46-16.612,145.925,145.925,0,0,1,2.01-15.836q1.95,0.387,4.41.646a18.854,18.854,0,0,0,4.93-.129,11.514,11.514,0,0,0,4.54-1.745,9.575,9.575,0,0,0,3.37-4.331,7.657,7.657,0,0,1-3.18,2.779,17.562,17.562,0,0,1-4.41,1.422,22.7,22.7,0,0,1-4.86.388,28.829,28.829,0,0,1-4.54-.452,143.716,143.716,0,0,1,4.54-14.867,109.6,109.6,0,0,1,6.87-15.254,76.27,76.27,0,0,1,9.21-13.38,36.244,36.244,0,0,1,11.53-9.114,5.808,5.808,0,0,1,3.05-.776,2.485,2.485,0,0,1,1.75.776,2.12,2.12,0,0,1,.39,1.68,3.309,3.309,0,0,1-1.04,1.939,24.962,24.962,0,0,0,1.95-1.616,6.781,6.781,0,0,0,1.55-2.391,3.875,3.875,0,0,0,.13-3.232q-0.645-1.422-2.85-.776a26.329,26.329,0,0,0-5.83,2.715q-3.24,1.94-6.42,4.266t-6.03,4.783q-2.85,2.457-4.54,4.137a77.658,77.658,0,0,0-9.01,8.92q-4.08,4.785-7.77,9.89t-7.07,10.277q-3.375,5.172-6.87,10.213a73.354,73.354,0,0,0-19.19.452,70.918,70.918,0,0,0-17.89,5.236,64.841,64.841,0,0,0-11.67,7.175,62.3,62.3,0,0,0-9.85,9.5,63.851,63.851,0,0,0-5.64,8.467,46.593,46.593,0,0,0-4.15,9.89,32.537,32.537,0,0,0-1.29,10.277,19.134,19.134,0,0,0,2.78,9.373,11.849,11.849,0,0,0,4.41,4.2,10.454,10.454,0,0,0,5.96,1.228,32.729,32.729,0,0,0,12.06-3.361,53.107,53.107,0,0,0,10.89-7.3,77.951,77.951,0,0,0,9.66-9.954q4.47-5.493,8.36-11.247t7.07-11.376q3.165-5.623,5.77-10.149,1.68-2.841,3.17-5.494t3.05-5.623c0.86,0.087,2.25.258,4.15,0.517s3.45,0.474,4.66.646a115.635,115.635,0,0,0-1.29,11.764,117.26,117.26,0,0,0-.07,12.863,103.457,103.457,0,0,0,1.49,12.992,61.956,61.956,0,0,0,3.5,12.217,47.774,47.774,0,0,0,5.9,10.536,32.565,32.565,0,0,0,8.62,8.015,26.027,26.027,0,0,0,10.83,3.814A34.4,34.4,0,0,0,1458.3,320a48.393,48.393,0,0,0,10.96-3.878,80.779,80.779,0,0,0,10.31-6.076,111.951,111.951,0,0,0,9.26-7.175q4.35-3.75,7.85-7.11-5.055,4.393-10.7,8.985a90.374,90.374,0,0,1-11.79,8.144,58.508,58.508,0,0,1-12.77,5.494,31.506,31.506,0,0,1-13.62.9A25.068,25.068,0,0,1,1436.14,314.312Zm-52.51-28.893a87.017,87.017,0,0,1-8.69,11.247,55.041,55.041,0,0,1-5.89,5.494,42.474,42.474,0,0,1-7.98,5.171,25.161,25.161,0,0,1-8.68,2.586,10.68,10.68,0,0,1-7.91-2.263,9.709,9.709,0,0,1-3.37-4.977,20.351,20.351,0,0,1-.78-6.657,35.586,35.586,0,0,1,1.1-7.5,64.889,64.889,0,0,1,2.34-7.434,61.708,61.708,0,0,1,2.91-6.528,42.378,42.378,0,0,1,2.85-4.783,50.735,50.735,0,0,1,9.08-10.084,52.862,52.862,0,0,1,11.41-7.369,54.219,54.219,0,0,1,17.43-5.235,83.189,83.189,0,0,1,18.22-.194q-3.885,6.592-7.46,13.251-3.555,6.658-7.32,13.25Q1387.4,279.6,1383.63,285.419Zm33.06-50.935q3.375-5.945,7.06-11.57a116.976,116.976,0,0,1,8.04-10.794,65.738,65.738,0,0,1,9.79-9.437,59.683,59.683,0,0,0-8.56,9.76,96.065,96.065,0,0,0-6.74,11.182,101.549,101.549,0,0,0-4.66,11.829,122.613,122.613,0,0,0-3.25,12.087q-2.2-.387-4.14-0.646c-1.3-.172-2.68-0.344-4.15-0.517Q1413.32,240.433,1416.69,234.484Zm26.06,36.844q1.935-1.939,4.02-3.878,1.425-1.422,4.27-4.266t6.29-6.852q3.435-4,7.13-8.92a97.1,97.1,0,0,0,6.81-10.407,72.057,72.057,0,0,0,5.18-11.311,43.45,43.45,0,0,0,2.47-11.764,4.755,4.755,0,0,0-.52-2.909,1.95,1.95,0,0,0-2.14-.711,8.818,8.818,0,0,0-3.7,2.068,50.309,50.309,0,0,0-5.31,5.3,96.04,96.04,0,0,0-7.72,10.729q-4.08,6.467-7.9,13.574t-7.2,14.156q-3.375,7.047-5.7,12.217a72.806,72.806,0,0,0-3.96,9.954,38.839,38.839,0,0,0-1.23,5.688,8.064,8.064,0,0,0,.91,5.494,4.724,4.724,0,0,0,4.41,2.521,11,11,0,0,0,6.41-2.133,30.052,30.052,0,0,0,5.38-4.783,41.946,41.946,0,0,0,3.83-4.977c0.99-1.552,1.62-2.5,1.88-2.844v-1.164q-1.17,1.94-2.72,4.137a52.084,52.084,0,0,1-3.31,4.2,26.554,26.554,0,0,1-3.76,3.556,10.941,10.941,0,0,1-4.21,2.068q-2.985.775-4.28-1.228a7.991,7.991,0,0,1-1.3-4.46,8.533,8.533,0,0,1,.13-2.456c0.17-.776.37-1.723,0.59-2.844a26.5,26.5,0,0,1,1.1-3.879Q1440.8,273.268,1442.75,271.328Zm26.31-54.49q2.985-3.3,4.41-3.684t1.62,1.616a16.479,16.479,0,0,1-.58,5.236,71.627,71.627,0,0,1-4.93,14.931,88.155,88.155,0,0,1-7.78,13.574,111.17,111.17,0,0,1-10.3,12.669q-5.775,6.141-12.38,12.346,5.055-11.117,9.33-20.555,1.815-4.006,3.76-8.015t3.63-7.5q1.68-3.49,3.11-6.141t2.21-3.813A98.667,98.667,0,0,1,1469.06,216.838Zm-8.23,55.653q0.975-.9,2.01-1.939c0.69-.688,1.34-1.335,1.94-1.939s1-.99,1.17-1.163q1.425-1.422,4.28-4.331t6.35-6.852c2.34-2.628,4.73-5.579,7.2-8.855a89.549,89.549,0,0,0,6.74-10.407,80.161,80.161,0,0,0,5.18-11.311,38.617,38.617,0,0,0,2.4-11.764,4.685,4.685,0,0,0-.52-2.909,1.938,1.938,0,0,0-2.14-.711,8.852,8.852,0,0,0-3.69,2.068,51.218,51.218,0,0,0-5.32,5.3,82.4,82.4,0,0,0-7.19,9.954q-3.825,6.078-7.52,12.8t-7,13.445q-3.3,6.723-5.64,12.022a62.29,62.29,0,0,0-4.34,13.122,24.144,24.144,0,0,0-.33,9.372q0.78,3.364,2.66,3.814a5.525,5.525,0,0,0,3.95-.646,17.547,17.547,0,0,0,3.96-2.909c1.25-1.206,2.22-2.2,2.92-2.973a9.054,9.054,0,0,0,3.88-.065,14.275,14.275,0,0,0,3.7-1.422,15.1,15.1,0,0,0,3.11-2.262,14.817,14.817,0,0,0,2.14-2.457,6.235,6.235,0,0,0,.71-0.969c0.3-.473.59-0.925,0.85-1.358,0.34-.517.69-1.076,1.03-1.68a0.579,0.579,0,0,0-.19-0.517c-0.13-.085-0.24-0.043-0.33.129-0.6.949-1.06,1.66-1.36,2.133s-0.71,1.1-1.23,1.875a16.09,16.09,0,0,1-4.86,4.136,9.109,9.109,0,0,1-5.9.9,62.091,62.091,0,0,0,6.22-8.661q2.6-4.393,2.34-6.723a2.737,2.737,0,0,0-1.62-2.262,4.853,4.853,0,0,0-3.24-.064,10.932,10.932,0,0,0-3.89,2.133,12.8,12.8,0,0,0-3.31,4.072,17.161,17.161,0,0,0-1.36,3.426,15.8,15.8,0,0,0-.65,3.942,7.621,7.621,0,0,0,.65,3.491,3.776,3.776,0,0,0,2.66,2.068,29.726,29.726,0,0,1-3.83,3.491,4.968,4.968,0,0,1-3.04,1.228,2.494,2.494,0,0,1-2.08-1.681,12.86,12.86,0,0,1-.78-5.235,18.814,18.814,0,0,1,.65-5.042c0.43-1.551.87-3.1,1.3-4.654A13.5,13.5,0,0,0,1460.83,272.491Zm7.97-2.326a8.838,8.838,0,0,1,2.98-2.263,2.885,2.885,0,0,1,2.53,0,2.535,2.535,0,0,1,1.23,2.263,6.053,6.053,0,0,1-.38,2.585,24.608,24.608,0,0,1-1.5,3.426c-0.64,1.25-1.4,2.543-2.26,3.878a35.34,35.34,0,0,1-2.86,3.814,1.11,1.11,0,0,1-.51-0.13l-0.52-.258a4.637,4.637,0,0,1-1.88-2.715q-0.72-2.066.71-6.2h0A11.975,11.975,0,0,1,1468.8,270.165Zm20.23-35.681a86.665,86.665,0,0,1-7.46,13.187,116,116,0,0,1-9.79,12.345q-5.445,6.012-11.79,11.958,1.035-2.841,2.33-6.4t3.11-7.562q2.205-4.912,4.47-9.761,2.28-4.848,4.28-8.984t3.63-7.24c1.08-2.068,1.93-3.575,2.53-4.524a98.456,98.456,0,0,1,7.91-10.666q2.985-3.3,4.41-3.684t1.62,1.616a18.369,18.369,0,0,1-.46,5.236A72.985,72.985,0,0,1,1489.03,234.484Zm12.05,42.015q-1.155,1.939-2.72,4.072a43.588,43.588,0,0,1-3.37,4.072,28.76,28.76,0,0,1-3.82,3.426,10.065,10.065,0,0,1-3.96,1.875,5.214,5.214,0,0,1-2.85-.259,4.835,4.835,0,0,1-2.01-1.616,6.135,6.135,0,0,1-.84-4.072q9.585-4.655,13.35-8.144c2.51-2.327,3.8-4.244,3.89-5.753a2.825,2.825,0,0,0-2.27-3.038,8.636,8.636,0,0,0-5.12,0,15.255,15.255,0,0,0-6.61,4.007,22.37,22.37,0,0,0-6.42,12.993,10.508,10.508,0,0,0,.52,4.589,5.683,5.683,0,0,0,1.88,2.65,4.931,4.931,0,0,0,2.33.97h0.65a10.933,10.933,0,0,0,6.35-2.069,30.655,30.655,0,0,0,5.32-4.654,34.242,34.242,0,0,0,3.76-4.912,22.134,22.134,0,0,1,1.81-2.715Zm-6.09-8.6q1.17,1.23.39,3.62a14.664,14.664,0,0,1-4.02,5.494,33.41,33.41,0,0,1-9.85,5.947,35.052,35.052,0,0,1,1.62-6.335,18.951,18.951,0,0,1,2.98-5.106,13.341,13.341,0,0,1,5.38-3.943h0C1493.05,266.977,1494.21,267.084,1494.99,267.9Zm24.89,9.631a64.866,64.866,0,0,1-4.34,5.947,45.208,45.208,0,0,1-4.61,4.977q-2.07,1.875-3.24,1.875c-0.78,0-.9-1.164-0.39-3.491q0.78-2.585,1.69-4.977a40.731,40.731,0,0,1,2.07-4.589c0.18-.344.37-0.754,0.59-1.228a4.779,4.779,0,0,0,.39-1.487,2.617,2.617,0,0,0-.33-1.487,3.165,3.165,0,0,0-1.55-1.228,20.945,20.945,0,0,0-2.34-.969,13.24,13.24,0,0,1-2.2-.97,5.284,5.284,0,0,0,.52-1.357,16,16,0,0,0,.39-2q0.255-3.23-1.17-3.685a2.417,2.417,0,0,0-2.59.711,4.27,4.27,0,0,0-1.17,3.168q0,2.006,3.11,3.555a17.124,17.124,0,0,1-1.1,2.068c-0.56.95-1.15,1.919-1.75,2.909s-1.43,2.262-2.46,3.814a0.351,0.351,0,0,0,.06.452c0.13,0.129.28,0.109,0.45-.065q1.17-1.938,2.34-3.619c0.6-.948,1.21-1.917,1.81-2.909a19.687,19.687,0,0,0,1.3-2.392,2.267,2.267,0,0,1,1.23.647,13.9,13.9,0,0,1,1.36,1.034,2.388,2.388,0,0,1,.97,2.521,12.975,12.975,0,0,1-.84,2.65c-1.04,1.984-1.94,3.858-2.72,5.623a30.863,30.863,0,0,0-1.82,5.5c-0.34,1.466-.3,2.5.13,3.1a2,2,0,0,0,1.69.9,6.606,6.606,0,0,0,3.82-1.616,29.667,29.667,0,0,0,4.22-3.943c1.38-1.551,2.67-3.122,3.89-4.718s2.16-2.909,2.85-3.943h0Zm-16.34-9.372a3.992,3.992,0,0,1,0-2,2.141,2.141,0,0,1,.91-1.293c0.43-.258.86-0.085,1.3,0.517a3.431,3.431,0,0,1,.06,2.2,8.955,8.955,0,0,1-.84,2.068A2,2,0,0,1,1503.54,268.161Zm70.98-17.388c-3.67-.085-7.35-0.236-11.02-0.452s-7.3-.408-10.89-0.582-7.19-.214-10.82-0.129c-1.99.087-3.5,0.151-4.54,0.194s-2.03.064-2.98,0.064q2.2-4.394,5.12-9.825t6.29-10.665a87.162,87.162,0,0,1,7.13-9.631,32.841,32.841,0,0,1,7.52-6.722q1.035-.516,1.29.258a2.768,2.768,0,0,1,.13.905,3.4,3.4,0,0,0,.26-1.939,3.077,3.077,0,0,0-.84-1.875,2.469,2.469,0,0,0-1.95-.646,5,5,0,0,0-2.91,1.745,69.585,69.585,0,0,0-7.65,8.468,115.411,115.411,0,0,0-6.81,9.889q-3.18,5.172-5.9,10.407t-4.92,9.89a192.462,192.462,0,0,0-36.04,7.368q-0.78.261-1.56,0.582a15.552,15.552,0,0,1-1.68.582q9.84-2.715,18.79-4.395a159.175,159.175,0,0,1,18.15-2.327,4.665,4.665,0,0,0,.78-0.065,4.887,4.887,0,0,1,.78-0.065q-4.02,8.276-7.46,16.418a92.2,92.2,0,0,0-5.25,16.677q-1.035,4.527-.58,6.141a1.582,1.582,0,0,0,1.82,1.422,7.516,7.516,0,0,0,3.37-1.875,37.076,37.076,0,0,0,3.95-3.878,53.283,53.283,0,0,0,4.08-4.848q1.89-2.522,2.92-4.2V276.5q-1.29,2.07-3.18,4.654a39.183,39.183,0,0,1-4.08,4.783c-1.99,2.155-3.43,3.341-4.34,3.555a1.229,1.229,0,0,1-1.69-.969,9.259,9.259,0,0,1,.2-3.814,54.044,54.044,0,0,1,1.36-5.236q0.84-2.715,1.62-4.977a29.526,29.526,0,0,1,1.17-3.038q1.8-4.524,3.76-8.855,1.935-4.331,4.14-8.6a5.335,5.335,0,0,1,.65-1.163,4.9,4.9,0,0,0,.65-1.164q3.765-.127,7.45-0.129h7.33q6.48,0,12.38.517t11.73,0.776a85.48,85.48,0,0,0,9.99-.065,46.791,46.791,0,0,0,9.39-1.551,33.48,33.48,0,0,0,8.37-3.555,25.535,25.535,0,0,0,7-6.335,40.221,40.221,0,0,1-9.99,6.27,33.5,33.5,0,0,1-11.4,2.779A95.317,95.317,0,0,1,1574.52,250.773Zm-22.17,28.312a10.662,10.662,0,0,1-3.95,3.361,13.816,13.816,0,0,1-2.47.9c0.61-.948,1.24-2.047,1.88-3.3a23.926,23.926,0,0,0,1.62-3.943,15.037,15.037,0,0,0,.72-4.007,6.464,6.464,0,0,0-.72-3.362,3.831,3.831,0,0,0-2.52-2.068,6.9,6.9,0,0,0-3.37.065,15.428,15.428,0,0,0-3.44,1.357,14.985,14.985,0,0,0-2.72,1.81,28.335,28.335,0,0,0-7.13,8.661,28.947,28.947,0,0,0-1.49,4.137,16.57,16.57,0,0,0-.72,4.654,5.77,5.77,0,0,0,1.17,3.685q1.17,1.486,4.02,1.228a11.506,11.506,0,0,0,7-2.715,36.572,36.572,0,0,0,5.06-5.3,16.165,16.165,0,0,0,3.56-1.293,11.418,11.418,0,0,0,2.53-1.745,12.161,12.161,0,0,0,1.88-2.263c0.56-.86,1.14-1.765,1.75-2.715a0.326,0.326,0,0,0,0-.517c-0.17-.171-0.35-0.129-0.52.13A38.415,38.415,0,0,1,1552.35,279.085Zm-6.29-1.423a38.919,38.919,0,0,1-2.72,6.206h-0.52q-3.63,0-4.79-2.2a7.7,7.7,0,0,1-.72-4.977,15.617,15.617,0,0,1,1.95-5.365,7.481,7.481,0,0,1,3.3-3.361q2.46-1.033,3.96.129t0.84,5.171A42.643,42.643,0,0,1,1546.06,277.662ZM1531.74,289.1a14.553,14.553,0,0,1,.45-5.494,36.951,36.951,0,0,1,2.14-6.14,26.493,26.493,0,0,1,2.4-4.46,16.9,16.9,0,0,0-.71,4.266,8.762,8.762,0,0,0,.64,3.749,5.778,5.778,0,0,0,2.21,2.65,7.408,7.408,0,0,0,4.08.969,25.074,25.074,0,0,1-3.43,4.4,7.524,7.524,0,0,1-4.86,2.327C1532.93,291.453,1531.95,290.7,1531.74,289.1Z" transform="translate(-984 -150)"/>
      <path id="BIENVENIDO_A_LA_WEB_DEL_ENLACE_DE" data-name="BIENVENIDO A LA WEB DEL ENLACE DE" class="cls-2" d="M1065.63,153.173h3.7a3.608,3.608,0,0,1,1.34.229,2.782,2.782,0,0,1,.93.584,2.394,2.394,0,0,1,.54.783,2.164,2.164,0,0,1,.18.842,1.978,1.978,0,0,1-.21.894,2.516,2.516,0,0,1-.55.739,2.827,2.827,0,0,1-.81.517,2.389,2.389,0,0,1-.97.2v0.059a7.609,7.609,0,0,1,.85.1,3.427,3.427,0,0,1,1.04.354,2.664,2.664,0,0,1,.87.769,2.193,2.193,0,0,1,.37,1.344,3.228,3.228,0,0,1-.18,1.056,2.547,2.547,0,0,1-.61.939,3.025,3.025,0,0,1-1.09.672,4.817,4.817,0,0,1-1.68.258h-3.72V153.173Zm3.49,9.692a2.81,2.81,0,0,0,.9-0.14,2.07,2.07,0,0,0,.73-0.421,2.155,2.155,0,0,0,.5-0.68,2.205,2.205,0,0,0,.18-0.916,2.3,2.3,0,0,0-.17-0.9,1.94,1.94,0,0,0-.52-0.754,2.471,2.471,0,0,0-.88-0.517,3.678,3.678,0,0,0-1.26-.192h-1.63v4.521h2.15Zm-0.38-5.171a2.341,2.341,0,0,0,.84-0.148,2.2,2.2,0,0,0,.69-0.413,2.016,2.016,0,0,0,.48-0.636,1.934,1.934,0,0,0,.17-0.8,2.032,2.032,0,0,0-.12-0.68,1.7,1.7,0,0,0-.38-0.606,1.854,1.854,0,0,0-.66-0.428,2.708,2.708,0,0,0-.99-0.163h-1.8v3.871h1.77Zm13.61-4.521v10.342h-1.34V153.173h1.34Zm15.85,0v0.813h-5.34v3.708h4.58v0.68h-4.58V162.7h5.34v0.812h-6.68V153.173h6.68Zm16.25,0v10.52h-0.07l-8.2-8.082h-0.06v7.9h-0.68V153h0.07l8.2,8.082h0.06v-7.905h0.68Zm8.84,0,3.55,8.51h0.05l3.45-8.51h0.77l-4.2,10.342h-0.89l-4.33-10.342h1.6Zm21.74,0v0.813h-5.34v3.708h4.58v0.68h-4.58V162.7h5.34v0.812h-6.68V153.173h6.68Zm16.25,0v10.52h-0.07l-8.2-8.082h-0.06v7.9h-0.68V153h0.07l8.2,8.082h0.06v-7.905h0.68Zm10.51,0v10.342h-1.34V153.173h1.34Zm12.89,10.342a5.612,5.612,0,0,0,2.08-.384,5.278,5.278,0,0,0,1.71-1.078,5.075,5.075,0,0,0,1.57-3.738,5.031,5.031,0,0,0-1.54-3.672,5.314,5.314,0,0,0-1.75-1.078,6.231,6.231,0,0,0-2.25-.392h-3.4v10.342h3.58Zm-2.24-9.692h1.63a4.78,4.78,0,0,1,1.93.37,4.1,4.1,0,0,1,1.41,1,4.509,4.509,0,0,1,.86,1.448,5.163,5.163,0,0,1,.29,1.706,5.273,5.273,0,0,1-.25,1.6,4.02,4.02,0,0,1-2.19,2.512,4.7,4.7,0,0,1-2.05.406h-1.63v-9.042Zm14.13,2.734a5.168,5.168,0,0,1,.99-1.736,5.458,5.458,0,0,1,1.73-1.308,5.635,5.635,0,0,1,2.51-.517,5.88,5.88,0,0,1,2.57.524,5.649,5.649,0,0,1,1.79,1.323,5.438,5.438,0,0,1,1.39,3.5,4.8,4.8,0,0,1-.15,1.153,6.464,6.464,0,0,1-.46,1.2,5.233,5.233,0,0,1-.78,1.137,5.026,5.026,0,0,1-1.11.953,5.721,5.721,0,0,1-1.45.658,6.249,6.249,0,0,1-1.8.244,5.567,5.567,0,0,1-2.51-.525,5.478,5.478,0,0,1-1.73-1.322,5.621,5.621,0,0,1-1.31-3.5A5.4,5.4,0,0,1,1196.57,156.557Zm1.44,3.686a4.729,4.729,0,0,0,.88,1.485,3.859,3.859,0,0,0,2.94,1.315,4,4,0,0,0,1.65-.348,4.192,4.192,0,0,0,1.36-.967,4.467,4.467,0,0,0,.92-1.485,5.47,5.47,0,0,0,0-3.8,4.467,4.467,0,0,0-.92-1.485,4.2,4.2,0,0,0-1.36-.968,4.02,4.02,0,0,0-1.65-.347,3.906,3.906,0,0,0-1.64.347,3.857,3.857,0,0,0-1.3.968,4.729,4.729,0,0,0-.88,1.485A5.968,5.968,0,0,0,1198.01,160.243Zm27.93,0.229-1.3,3.043h-0.68l4.37-10.342h0.74l4.82,10.342h-1.44l-1.42-3.043h-5.09Zm2.46-5.644h-0.05l-2.13,4.979h4.5Zm29.6,8.687V162.7h-5.33v-9.53h-1.35v10.342H1258Zm7.9-3.043-1.3,3.043h-0.68l4.37-10.342h0.74l4.82,10.342h-1.44l-1.42-3.043h-5.09Zm2.46-5.644h-0.06l-2.12,4.979h4.5Zm22.95-1.655,3.05,8.584h0.06l2.94-8.584h0.63l2.89,8.628h0.05l3.06-8.628h0.68l-3.66,10.342h-0.87l-2.74-8.081h-0.07l-2.82,8.081h-0.89l-3.67-10.342h1.36Zm27.28,0v0.813h-5.33v3.708h4.58v0.68h-4.58V162.7h5.33v0.812h-6.68V153.173h6.68Zm7.25,0h3.7a3.608,3.608,0,0,1,1.34.229,2.782,2.782,0,0,1,.93.584,2.394,2.394,0,0,1,.54.783,2.164,2.164,0,0,1,.18.842,1.978,1.978,0,0,1-.21.894,2.516,2.516,0,0,1-.55.739,2.827,2.827,0,0,1-.81.517,2.389,2.389,0,0,1-.97.2v0.059a8.024,8.024,0,0,1,.86.1,3.463,3.463,0,0,1,1.03.354,2.568,2.568,0,0,1,.87.769,2.193,2.193,0,0,1,.37,1.344,3.228,3.228,0,0,1-.18,1.056,2.547,2.547,0,0,1-.61.939,3.025,3.025,0,0,1-1.09.672,4.817,4.817,0,0,1-1.68.258h-3.72V153.173Zm3.49,9.692a2.81,2.81,0,0,0,.9-0.14,2.07,2.07,0,0,0,.73-0.421,2.155,2.155,0,0,0,.5-0.68,2.205,2.205,0,0,0,.18-0.916,2.3,2.3,0,0,0-.17-0.9,1.94,1.94,0,0,0-.52-0.754,2.471,2.471,0,0,0-.88-0.517,3.678,3.678,0,0,0-1.26-.192h-1.63v4.521h2.15Zm-0.38-5.171a2.341,2.341,0,0,0,.84-0.148,2.2,2.2,0,0,0,.69-0.413,2.016,2.016,0,0,0,.48-0.636,1.934,1.934,0,0,0,.17-0.8,2.032,2.032,0,0,0-.12-0.68,1.7,1.7,0,0,0-.38-0.606,1.854,1.854,0,0,0-.66-0.428,2.708,2.708,0,0,0-.99-0.163h-1.8v3.871h1.77Zm25.6,5.821a5.612,5.612,0,0,0,2.08-.384,5.278,5.278,0,0,0,1.71-1.078,5.014,5.014,0,0,0,1.15-1.648,5.4,5.4,0,0,0,.02-4.129,4.793,4.793,0,0,0-1.14-1.633,5.314,5.314,0,0,0-1.75-1.078,6.231,6.231,0,0,0-2.25-.392h-3.4v10.342h3.58Zm-2.23-9.692h1.62a4.746,4.746,0,0,1,1.93.37,4.1,4.1,0,0,1,1.41,1,4.336,4.336,0,0,1,.86,1.448,4.927,4.927,0,0,1,.3,1.706,5.289,5.289,0,0,1-.26,1.6,4.042,4.042,0,0,1-2.18,2.512,4.744,4.744,0,0,1-2.06.406h-1.62v-9.042Zm21.51-.65v0.813h-5.33v3.708h4.58v0.68h-4.58V162.7h5.33v0.812h-6.68V153.173h6.68Zm13.93,10.342V162.7h-5.34v-9.53h-1.34v10.342h6.68Zm24.11-10.342v0.813h-5.33v3.708h4.58v0.68h-4.58V162.7h5.33v0.812h-6.68V153.173h6.68Zm16.26,0v10.52h-0.08l-8.2-8.082h-0.06v7.9h-0.68V153h0.08l8.2,8.082h0.06v-7.905h0.68Zm15.25,10.342V162.7h-5.34v-9.53h-1.34v10.342h6.68Zm7.89-3.043-1.3,3.043h-0.68l4.37-10.342h0.74l4.82,10.342h-1.43l-1.42-3.043h-5.1Zm2.47-5.644h-0.06l-2.13,4.979h4.51Zm21.87,7.18a4.867,4.867,0,0,1-.56.517,4.662,4.662,0,0,1-.93.554,6.476,6.476,0,0,1-1.3.436,7.239,7.239,0,0,1-1.69.178,6.482,6.482,0,0,1-2.57-.466,5.037,5.037,0,0,1-1.77-1.226,4.757,4.757,0,0,1-1.03-1.743,6.3,6.3,0,0,1-.33-2.017,5.562,5.562,0,0,1,.41-2.165,4.811,4.811,0,0,1,1.17-1.654,5.224,5.224,0,0,1,1.81-1.057,7.022,7.022,0,0,1,2.34-.369,6.4,6.4,0,0,1,1.58.177,4.34,4.34,0,0,1,1.21.488,3.173,3.173,0,0,1,.87.739,4.245,4.245,0,0,1,.57.93h-1.1a1.743,1.743,0,0,0-.36-0.613,2.5,2.5,0,0,0-.66-0.539,3.935,3.935,0,0,0-.93-0.384,4.272,4.272,0,0,0-1.16-.148,4.359,4.359,0,0,0-1.73.34,4.116,4.116,0,0,0-1.36.945,4.323,4.323,0,0,0-.9,1.441,5.171,5.171,0,0,0-.31,1.839,5.546,5.546,0,0,0,.3,1.818,4.541,4.541,0,0,0,.89,1.536,4.4,4.4,0,0,0,1.48,1.064,4.918,4.918,0,0,0,2.04.4,5.057,5.057,0,0,0,3.58-1.419Zm13.77-8.835v0.813h-5.33v3.708h4.58v0.68h-4.58V162.7h5.33v0.812h-6.68V153.173h6.68Zm21.16,10.342a5.664,5.664,0,0,0,2.09-.384,5.278,5.278,0,0,0,1.71-1.078,5.248,5.248,0,0,0,1.16-5.777,4.909,4.909,0,0,0-1.13-1.633,5.361,5.361,0,0,0-1.76-1.078,6.176,6.176,0,0,0-2.24-.392h-3.4v10.342h3.57Zm-2.23-9.692h1.63a4.78,4.78,0,0,1,1.93.37,3.966,3.966,0,0,1,1.4,1,4.36,4.36,0,0,1,.87,1.448,5.163,5.163,0,0,1,.29,1.706,5.273,5.273,0,0,1-.25,1.6,4.133,4.133,0,0,1-.8,1.456,4.012,4.012,0,0,1-1.39,1.056,4.7,4.7,0,0,1-2.05.406h-1.63v-9.042Zm21.52-.65v0.813h-5.33v3.708h4.58v0.68h-4.58V162.7h5.33v0.812h-6.68V153.173h6.68Z" transform="translate(-984 -150)"/>
    </g>
  </g>
</svg>
